<?xml version="1.0" standalone="no"?>
<!DOCTYPE svg PUBLIC "-//W3C//DTD SVG 20010904//EN"
 "http://www.w3.org/TR/2001/REC-SVG-20010904/DTD/svg10.dtd">
<svg version="1.0" xmlns="http://www.w3.org/2000/svg"
 width="1192.000000pt" height="292.000000pt" viewBox="0 0 1192.000000 292.000000"
 preserveAspectRatio="xMidYMid meet">

<g transform="translate(0.000000,292.000000) scale(0.100000,-0.100000)"
fill="#000000" stroke="none">
<path d="M0 2459 c0 -434 1 -460 18 -455 40 12 222 46 247 46 15 0 24 -4 20
-10 -3 -5 -17 -10 -30 -10 -31 0 -76 -20 -69 -31 3 -5 -1 -9 -9 -9 -8 0 -28
-7 -43 -15 -21 -11 -44 -14 -82 -9 l-52 6 0 -341 1 -341 37 19 c124 63 569
126 652 92 19 -7 2 -10 -75 -10 -172 -1 -411 -40 -543 -87 l-72 -26 0 -639 0
-639 1209 0 1210 0 15 21 c21 31 49 106 91 244 21 66 45 143 55 170 9 28 21
68 24 89 4 22 21 66 37 98 16 31 29 69 29 83 0 16 14 39 38 63 22 20 41 44 45
52 3 8 6 -2 6 -22 1 -21 -3 -38 -7 -38 -4 0 -8 -9 -8 -20 0 -11 4 -20 8 -20
16 0 7 -19 -12 -25 -36 -12 -40 -25 -80 -295 -11 -75 -35 -162 -57 -205 -18
-34 -25 -104 -17 -158 l6 -37 1470 0 c924 1 1492 5 1527 11 81 15 195 53 279
94 70 34 93 49 242 165 63 49 76 56 170 98 53 24 193 62 227 62 16 0 23 -6 23
-20 0 -18 7 -20 73 -20 143 0 222 -49 283 -175 19 -38 34 -77 34 -85 0 -9 10
-36 22 -61 12 -24 21 -50 20 -57 -2 -9 499 -12 2478 -12 l2480 0 0 1460 0
1460 -5960 0 -5960 0 0 -461z m859 -136 c-186 -196 -195 -210 -124 -205 22 2
58 8 80 13 22 4 56 9 74 9 63 0 19 -20 -171 -80 -169 -53 -269 -95 -358 -151
-34 -21 -33 -21 7 17 31 29 40 43 32 51 -15 15 27 43 66 43 43 0 76 23 200
141 122 116 226 209 234 209 3 0 -15 -21 -40 -47z m1752 -151 c265 -160 356
-215 389 -237 124 -81 314 -185 320 -175 4 7 29 10 61 8 l54 -3 3 -45 4 -45
111 -53 c62 -28 142 -63 179 -77 l67 -25 3 123 3 122 58 3 57 3 0 -306 0 -305
-60 0 -60 0 0 120 0 120 -180 0 -180 0 0 -120 0 -120 -60 0 -60 0 0 58 c-1 31
0 158 0 280 1 217 0 224 -20 229 -11 3 -20 9 -20 14 0 5 -3 8 -7 8 -23 -4 -43
2 -38 11 3 6 2 10 -4 10 -5 0 -18 3 -28 6 -15 5 -15 4 -3 -5 12 -9 10 -11 -10
-11 -21 0 -26 5 -28 28 -1 15 -10 33 -20 40 -32 25 -177 108 -212 122 -40 16
-82 42 -310 193 -234 156 -238 167 -9 29z m7259 9 c30 -19 105 -58 165 -87 61
-29 102 -53 91 -54 -14 0 -17 -6 -14 -25 3 -14 3 -25 1 -25 -3 0 -28 19 -56
43 -58 48 -216 158 -289 200 -27 15 -48 30 -48 33 0 6 69 -33 150 -85z m-1965
6 c-55 -39 -269 -267 -293 -312 -11 -21 -10 -25 3 -25 8 0 24 -5 34 -12 26
-16 199 15 253 45 33 18 41 19 63 7 37 -20 31 -28 -22 -34 -75 -9 -166 -33
-230 -60 l-58 -25 155 -1 c101 0 150 -4 140 -10 -10 -6 -15 -26 -15 -61 l0
-52 -122 2 -123 2 0 -125 c0 -105 2 -126 15 -126 9 0 15 -9 15 -25 0 -18 -4
-23 -15 -19 -12 5 -15 -3 -15 -35 l0 -41 120 0 120 0 0 -60 0 -60 -300 0 -300
0 0 60 0 60 120 0 120 0 0 103 0 104 -30 -5 c-43 -6 -82 21 -71 51 15 40 85
63 94 30 3 -10 5 6 6 35 l1 52 -56 0 c-53 0 -60 -3 -113 -47 -131 -113 -161
-152 -92 -123 16 6 38 10 48 8 11 -2 -11 -18 -64 -43 -44 -22 -79 -37 -76 -32
10 16 -6 5 -40 -25 -70 -66 -157 -178 -157 -203 0 -17 -6 -25 -17 -25 -16 -1
-80 -87 -167 -227 -17 -29 -33 -43 -47 -43 -13 0 -19 5 -16 12 61 141 68 162
63 184 -4 14 -11 22 -16 19 -6 -3 -10 1 -10 9 0 20 1 20 -60 -4 -27 -11 -50
-18 -50 -16 0 2 20 16 44 30 33 19 44 31 41 46 -5 28 47 63 86 58 26 -4 29 -2
29 25 0 24 -3 27 -14 18 -7 -6 -67 -29 -132 -51 -146 -47 -178 -59 -229 -80
-22 -10 -65 -28 -95 -40 -143 -58 -203 -85 -223 -100 -26 -19 -163 -93 -192
-103 -14 -5 -11 1 10 18 l30 25 -34 -10 c-54 -15 -46 -6 17 20 64 26 263 132
336 179 l48 30 -184 4 c-100 3 -187 6 -193 7 -5 0 -61 -17 -123 -39 -64 -23
-148 -45 -195 -51 -93 -11 -285 -12 -367 0 -44 6 -30 7 76 9 127 1 299 19 399
41 42 9 183 50 193 56 2 1 -6 17 -17 35 -19 31 -21 50 -21 237 0 320 -15 307
345 307 l260 0 3 -57 3 -58 -246 0 -245 0 0 -65 0 -65 228 1 c125 0 236 4 247
9 17 7 16 9 -10 10 -16 1 -55 10 -85 20 -41 15 -46 18 -20 15 19 -3 67 -8 105
-11 l70 -6 60 43 60 44 -52 3 -53 3 0 60 0 59 303 -2 302 -3 3 -47 3 -48 30
22 c20 15 29 30 29 50 0 26 3 28 42 28 35 0 48 7 92 48 54 49 140 125 241 211
33 28 96 82 140 121 43 38 82 67 85 64 3 -3 -9 -15 -25 -27z m82 -98 c8 -8 6
-16 -8 -30 -20 -20 -20 -20 -44 -1 l-24 19 22 11 c29 14 41 14 54 1z m328 -41
c33 -15 32 -24 -5 -43 -23 -12 -30 -12 -30 -3 0 7 -3 23 -6 36 -7 25 3 28 41
10z m590 -123 c66 -37 129 -74 140 -81 27 -19 33 -18 37 8 2 12 9 24 17 26 10
3 12 -1 9 -14 -3 -11 -7 -25 -9 -33 -4 -16 144 -111 173 -111 9 0 28 -11 41
-24 99 -99 341 -125 537 -58 47 16 105 39 129 51 47 22 62 26 59 14 -1 -5 6
-22 15 -40 22 -42 21 -50 -3 -28 -10 9 -18 22 -17 27 1 6 -4 13 -10 15 -19 7
-29 -27 -12 -38 8 -5 11 -9 7 -10 -5 -1 -11 -2 -15 -3 -5 -1 -24 -12 -43 -24
-19 -12 -41 -22 -47 -22 -7 0 -13 -3 -13 -7 0 -5 -26 -9 -58 -10 -88 -4 -107
-46 -34 -76 29 -11 31 -14 12 -13 -14 2 -37 8 -52 14 -15 6 -55 18 -87 27 -33
8 -68 18 -78 22 -17 6 -17 5 -2 -13 35 -44 51 -115 28 -130 -6 -3 -9 -19 -7
-35 l5 -29 -26 22 c-14 13 -28 24 -31 26 -2 2 2 7 10 12 12 7 11 14 -5 44 -11
19 -21 33 -24 31 -9 -9 -31 18 -31 37 0 19 1 19 18 -3 l19 -22 11 32 c10 27 9
33 -6 38 -9 3 -39 14 -65 25 -26 10 -63 18 -81 18 -40 0 -184 29 -208 41 -11
6 -24 5 -35 -2 -22 -13 -78 5 -67 22 6 11 21 10 112 -7 23 -5 32 -3 32 7 -1
24 -25 48 -96 95 -64 42 -69 43 -72 24 -4 -25 -29 -37 -44 -22 -6 6 -3 16 12
29 l21 20 -33 25 c-30 22 -141 88 -270 162 -27 15 -48 29 -48 31 0 8 70 -26
185 -90z m-7548 -24 c109 -27 304 -74 433 -105 129 -32 270 -66 312 -77 42
-10 132 -30 200 -45 184 -39 483 -128 548 -164 48 -26 30 -25 -54 4 -69 24
-109 33 -151 35 -15 1 -17 3 -6 10 14 9 -97 51 -133 50 -12 0 4 -8 34 -19 95
-31 40 -22 -90 16 -232 68 -233 68 -427 68 -101 1 -183 5 -183 10 0 4 -30 5
-67 1 -38 -4 -65 -4 -61 0 3 3 30 9 59 11 56 6 80 14 38 14 -14 0 -29 4 -35 8
-5 5 -28 14 -51 21 -24 6 -43 16 -43 21 0 13 -77 13 -85 0 -3 -5 -11 -10 -17
-10 -6 0 -6 6 2 15 21 26 22 25 -195 101 -55 19 -136 46 -180 59 -132 40 -59
28 152 -24z m938 19 c-3 -5 -11 -10 -16 -10 -6 0 -7 5 -4 10 3 6 11 10 16 10
6 0 7 -4 4 -10z m5181 -26 c-3 -9 -6 -18 -6 -20 0 -2 -7 -4 -15 -4 -13 0 -13
3 -3 20 15 24 33 27 24 4z m-7221 -34 c3 -5 2 -10 -4 -10 -5 0 -13 5 -16 10
-3 6 -2 10 4 10 5 0 13 -4 16 -10z m8034 -44 c-2 -2 -35 -6 -74 -9 -46 -4 -65
-3 -55 3 14 9 139 15 129 6z m1016 -6 c3 -5 4 -10 1 -10 -2 0 -12 -3 -20 -6
-12 -5 -15 -2 -10 10 7 18 20 21 29 6z m-6701 -49 c4 -5 -3 -7 -14 -4 -23 6
-26 13 -6 13 8 0 17 -4 20 -9z m1986 -51 l0 -60 -242 -2 -243 -3 0 -60 0 -60
110 -1 c61 0 170 -1 243 -2 l132 -2 0 -60 0 -60 -245 0 -245 0 0 -60 0 -60
245 0 245 0 0 -60 0 -60 -250 0 c-365 0 -353 -9 -358 269 -2 102 -1 204 3 228
7 47 50 99 88 106 12 2 133 5 270 6 l247 1 0 -60z m590 47 c19 -7 44 -27 57
-46 19 -29 23 -47 23 -118 0 -148 -30 -183 -162 -191 l-80 -5 58 -58 58 -59
63 0 63 0 0 -60 0 -60 -81 0 -80 0 -102 98 c-56 53 -113 107 -126 120 -17 15
-37 22 -63 22 l-38 0 0 -120 0 -120 -60 0 -60 0 0 298 c0 164 3 302 7 305 12
13 485 7 523 -6z m688 -9 c56 -39 57 -43 60 -325 l3 -263 -60 0 -61 0 -2 243
-3 242 -60 0 -60 0 -3 -242 -2 -243 -54 0 c-47 0 -54 3 -60 23 -3 12 -6 122
-6 245 l0 222 -60 0 -60 0 0 -245 0 -245 -60 0 -61 0 3 264 c4 363 -10 347
318 343 172 -2 209 -5 228 -19z m2732 -38 l0 -60 -240 0 -240 0 0 -185 0 -185
245 0 245 0 0 -37 c0 -21 -3 -48 -6 -61 l-7 -23 -263 3 -264 3 -32 33 -33 32
-3 223 c-4 326 -16 316 356 316 l242 1 0 -60z m160 15 c28 -14 50 -28 50 -30
0 -5 -99 42 -109 51 -12 11 15 1 59 -21z m155 -5 c9 -10 38 -27 64 -37 25 -9
68 -32 94 -50 26 -17 53 -30 60 -28 15 6 53 -22 43 -32 -4 -4 -16 -1 -27 6
-42 26 -26 4 26 -36 62 -48 114 -77 123 -68 4 3 5 22 3 41 -3 42 18 46 48 8
16 -20 18 -30 10 -40 -6 -7 -16 -11 -22 -9 -7 3 -19 0 -27 -5 -13 -8 -10 -14
15 -35 17 -14 62 -41 100 -59 65 -32 205 -151 205 -175 0 -5 17 -12 37 -16 54
-10 56 -13 26 -41 -30 -28 -32 -28 -59 -10 -16 11 -20 22 -16 47 4 25 1 31 -9
27 -49 -19 -57 -18 -94 12 -21 16 -41 30 -46 30 -4 0 -9 8 -12 18 -4 15 -5 15
-12 -2 -5 -12 -5 -21 1 -23 18 -6 159 -111 189 -141 45 -45 98 -68 92 -40 -3
16 31 22 48 8 12 -10 12 -15 -1 -35 -14 -21 -13 -24 18 -50 17 -15 55 -40 83
-56 27 -15 77 -51 110 -78 135 -112 300 -224 332 -226 18 -1 38 -7 45 -12 7
-6 31 -14 53 -17 111 -18 153 -22 148 -13 -3 5 4 6 16 3 11 -3 31 -9 44 -12
19 -5 222 -100 347 -162 49 -25 44 -24 -76 19 -67 24 -94 28 -150 25 -38 -2
-70 -8 -72 -14 -2 -6 -10 -8 -18 -5 -25 9 -15 -16 16 -39 17 -12 30 -28 30
-35 0 -20 -8 -19 -110 25 -19 8 -39 17 -44 20 -4 2 -6 -4 -2 -14 3 -11 2 -24
-2 -31 -5 -8 -30 10 -75 54 -37 36 -65 68 -63 71 3 3 14 -1 23 -9 17 -13 17
-12 4 4 -8 10 -24 23 -35 29 -19 10 -20 10 -7 -5 7 -10 11 -17 8 -17 -16 0
-269 173 -274 188 -9 23 -39 48 -88 74 -22 11 -75 58 -117 103 -63 67 -82 82
-107 82 -27 0 -29 -2 -19 -20 5 -11 28 -39 50 -63 22 -24 41 -49 42 -56 5 -28
48 -84 125 -165 45 -46 81 -80 81 -75 0 5 -9 17 -20 27 -11 10 -20 23 -20 29
0 6 43 -32 95 -84 52 -52 93 -96 90 -98 -2 -2 -33 22 -69 54 -36 33 -70 59
-76 59 -5 0 -103 96 -217 213 -157 160 -211 210 -222 203 -12 -8 -9 -15 13
-41 31 -38 30 -45 -7 -27 -17 7 -27 20 -27 33 0 15 -17 32 -56 58 l-56 36 5
-27 c5 -28 18 -78 31 -123 7 -22 5 -21 -12 6 -25 38 -50 58 -33 25 7 -11 9
-21 6 -21 -3 0 -19 28 -34 63 -35 76 -102 162 -184 236 -70 64 -109 91 -132
91 -8 0 -15 5 -15 10 0 6 -11 8 -25 4 -17 -4 -25 -2 -25 6 0 19 -118 3 -160
-23 -50 -30 -80 -55 -214 -181 -65 -61 -126 -115 -135 -120 -9 -6 56 65 144
157 149 156 188 205 152 192 -7 -3 -20 1 -27 10 -7 8 -29 15 -49 16 -36 1 -36
1 14 15 33 10 73 13 118 9 63 -5 69 -4 74 15 6 23 14 25 31 8 9 -9 9 -15 0
-25 -6 -8 -7 -13 -2 -11 5 1 19 -3 32 -10 27 -15 44 -8 35 16 -6 15 -5 15 10
3 9 -7 17 -20 17 -27 0 -12 37 -34 55 -34 12 0 -12 45 -36 64 -16 14 -29 28
-29 31 0 16 -65 85 -77 81 -17 -7 -17 11 0 17 7 4 3 8 -11 13 -12 3 -30 20
-38 36 -9 17 -50 51 -100 84 -87 56 -103 71 -58 54 39 -15 42 -13 34 25 -9 41
6 47 35 15z m739 -5 c4 -10 -1 -15 -14 -15 -20 0 -26 11 -13 23 10 11 20 8 27
-8z m-7154 -25 c0 -5 -9 -10 -19 -10 -11 0 -23 5 -26 10 -4 6 5 10 19 10 14 0
26 -4 26 -10z m-1005 -10 c-3 -5 -11 -10 -16 -10 -6 0 -7 5 -4 10 3 6 11 10
16 10 6 0 7 -4 4 -10z m1379 -60 c37 -14 35 -43 -1 -34 -34 8 -55 23 -47 35 7
11 17 11 48 -1z m286 -9 c0 -5 -7 -11 -15 -15 -15 -5 -20 5 -8 17 9 10 23 9
23 -2z m-2930 -11 c0 -5 -5 -10 -11 -10 -5 0 -7 5 -4 10 3 6 8 10 11 10 2 0 4
-4 4 -10z m415 -26 c77 -9 174 -22 215 -30 41 -9 113 -21 160 -29 47 -7 111
-19 143 -25 45 -10 63 -10 84 -1 34 15 22 27 -46 44 -83 21 -27 30 76 12 46
-8 90 -12 99 -8 12 4 15 3 10 -5 -8 -14 51 -45 121 -62 56 -14 60 -24 16 -34
-79 -19 -133 -38 -133 -46 0 -6 7 -10 15 -10 23 0 77 -29 71 -39 -3 -4 93 -60
212 -124 119 -64 214 -117 210 -117 -10 0 -81 35 -330 163 -113 59 -216 107
-227 107 -11 0 -35 9 -53 19 -60 36 -201 80 -363 115 -178 39 -426 78 -477 75
-18 -1 -44 3 -58 9 -29 13 32 10 255 -14z m10380 9 c-4 -10 -18 -47 -31 -82
-29 -80 -50 -104 -39 -46 4 22 13 47 20 55 7 8 18 32 26 53 7 20 17 37 22 37
5 0 6 -8 2 -17z m-8836 -19 c-16 -20 -28 -17 -22 5 3 12 11 17 19 14 11 -4 12
-9 3 -19z m2261 11 c-14 -8 -29 -14 -35 -14 -5 0 1 6 15 14 14 8 30 14 35 14
6 0 -1 -6 -15 -14z m-3954 -56 c4 -8 1 -8 -14 0 -12 6 -24 16 -28 22 -4 8 -1
8 14 0 12 -6 24 -16 28 -22z m8499 11 c3 -5 -2 -10 -13 -10 -11 0 -31 -9 -44
-20 -14 -10 -28 -17 -32 -13 -6 6 61 52 76 53 4 0 10 -4 13 -10z m968 -56 c27
7 65 -13 46 -24 -7 -5 -25 -6 -40 -3 -21 4 -27 1 -26 -10 1 -9 -2 -15 -8 -14
-5 1 -10 9 -10 17 0 8 -17 19 -40 26 -34 11 -36 13 -13 13 15 1 30 6 33 11 4
6 12 4 22 -6 9 -9 25 -13 36 -10z m-7043 6 c8 -5 11 -10 5 -10 -5 0 -17 5 -25
10 -8 5 -10 10 -5 10 6 0 17 -5 25 -10z m4930 0 c0 -5 -7 -10 -15 -10 -8 0
-15 5 -15 10 0 6 7 10 15 10 8 0 15 -4 15 -10z m377 -29 c35 -33 39 -42 27
-52 -11 -9 -22 -4 -55 29 -22 23 -38 46 -34 52 10 16 17 13 62 -29z m490 33
c-3 -3 -12 -4 -19 -1 -8 3 -5 6 6 6 11 1 17 -2 13 -5z m734 -37 c-16 -16 -26
0 -10 19 9 11 15 12 17 4 2 -6 -1 -17 -7 -23z m-6486 13 c3 -6 -1 -7 -9 -4
-18 7 -21 14 -7 14 6 0 13 -4 16 -10z m-945 -25 c0 -8 -7 -15 -16 -15 -14 0
-14 3 -4 15 7 8 14 15 16 15 2 0 4 -7 4 -15z m1094 -31 c33 -15 84 -37 113
-50 28 -12 57 -32 63 -44 11 -20 8 -19 -32 7 -23 17 -74 40 -113 53 -66 22
-133 60 -105 60 7 0 40 -12 74 -26z m-468 -15 c19 -21 19 -21 -5 -18 -14 2
-25 12 -27 22 -3 23 9 22 32 -4z m49 -17 c-6 -7 -35 18 -35 31 0 5 9 2 20 -8
11 -10 18 -20 15 -23z m308 19 c24 -9 67 -48 67 -60 0 -3 -4 -12 -9 -20 -8
-12 -19 -8 -65 22 -57 38 -66 51 -43 60 19 8 24 8 50 -2z m6849 -31 c3 -16 2
-30 -2 -30 -12 0 -30 24 -30 42 0 30 27 20 32 -12z m-8567 0 c-11 -5 -27 -9
-35 -9 -9 0 -8 4 5 9 11 5 27 9 35 9 9 0 8 -4 -5 -9z m1461 -17 c-6 -6 -36 9
-36 18 0 5 9 4 20 -3 10 -7 18 -14 16 -15z m-1791 7 c7 -12 -2 -12 -30 0 -19
8 -19 9 2 9 12 1 25 -3 28 -9z m8794 -27 c-15 -18 -34 -1 -25 22 5 14 9 15 21
5 12 -10 13 -16 4 -27z m-8529 17 c-8 -5 -22 -9 -30 -9 -10 0 -8 3 5 9 27 12
43 12 25 0z m-100 -19 c30 -8 21 -14 -45 -30 -27 -7 -56 -15 -64 -17 -10 -3
-9 2 5 18 34 40 48 45 104 29z m1140 -19 c0 -13 -12 -22 -22 -16 -10 6 -1 24
13 24 5 0 9 -4 9 -8z m7490 -18 c0 -8 -4 -12 -10 -9 -5 3 -10 10 -10 16 0 5 5
9 10 9 6 0 10 -7 10 -16z m220 -25 c0 -14 -17 -10 -23 5 -4 10 -1 13 9 9 7 -3
14 -9 14 -14z m947 5 c3 -8 -1 -27 -8 -41 -8 -14 -13 -34 -11 -43 4 -24 -28
-34 -47 -15 -14 14 -14 16 7 21 18 5 22 13 22 43 0 21 3 41 7 44 11 12 23 8
30 -9z m-9601 -31 c-7 -7 -26 7 -26 19 0 6 6 6 15 -2 9 -7 13 -15 11 -17z
m-431 7 c-11 -5 -27 -9 -35 -9 -9 0 -8 4 5 9 11 5 27 9 35 9 9 0 8 -4 -5 -9z
m1639 -5 c-4 -8 -8 -15 -10 -15 -2 0 -4 7 -4 15 0 8 4 15 10 15 5 0 7 -7 4
-15z m636 -45 c0 -22 55 -42 166 -61 65 -11 126 -18 136 -16 10 3 21 1 24 -4
9 -16 136 -10 219 10 44 11 81 18 83 16 2 -2 -31 -20 -75 -41 -96 -46 -133
-71 -133 -89 0 -8 30 -49 67 -92 70 -82 105 -127 64 -83 -13 14 -58 62 -100
108 -74 81 -127 122 -157 122 -8 0 -14 -4 -14 -10 0 -5 -7 -10 -15 -10 -8 0
-15 -7 -15 -15 0 -13 -4 -13 -27 2 -21 14 -27 15 -31 4 -2 -7 -12 -21 -21 -30
-16 -16 -16 -20 -3 -42 8 -13 -8 0 -35 30 -49 54 -49 54 -79 38 -16 -8 -40
-26 -53 -40 l-23 -26 58 -30 c74 -38 66 -38 -33 -3 -98 35 -117 35 -121 0 -3
-23 -12 -30 -60 -48 -43 -16 -62 -19 -78 -11 -15 6 -34 7 -55 1 -21 -6 -37 -6
-43 0 -6 6 -4 11 5 14 8 2 30 9 50 16 20 6 44 19 53 29 15 17 15 19 1 25 -9 3
-14 10 -11 15 8 12 -54 21 -144 21 -52 0 -70 3 -60 10 8 5 28 10 44 10 16 0
57 5 92 11 61 10 62 12 69 46 8 43 -6 55 -50 48 -30 -6 -30 -5 5 11 25 13 70
18 165 21 71 3 132 6 134 9 2 2 -3 12 -11 21 -29 35 -33 46 -9 34 11 -7 21
-16 21 -21z m5915 9 c10 -16 -1 -22 -26 -14 -17 6 -19 9 -8 16 19 12 26 11 34
-2z m-124 -24 c-1 -15 -24 -12 -29 3 -3 9 2 13 12 10 10 -1 17 -7 17 -13z
m299 -66 c0 -13 -7 -11 -30 8 -11 10 -20 27 -20 38 1 18 3 17 25 -8 14 -15 25
-32 25 -38z m-420 26 c-7 -9 -15 -13 -18 -10 -3 2 1 11 8 20 7 9 15 13 18 10
3 -2 -1 -11 -8 -20z m1375 15 c-3 -5 -12 -7 -20 -3 -21 7 -19 13 6 13 11 0 18
-4 14 -10z m-2552 -18 c9 -10 13 -23 8 -30 -7 -12 -26 2 -45 36 -11 19 19 15
37 -6z m3489 -7 c-3 -12 -48 -26 -56 -17 -3 3 -1 11 6 19 13 15 55 14 50 -2z
m-6015 -11 c-3 -3 -12 -4 -19 -1 -8 3 -5 6 6 6 11 1 17 -2 13 -5z m4713 -19
c13 -14 19 -25 13 -25 -6 0 -17 -2 -25 -5 -19 -7 -38 8 -43 33 -6 31 25 29 55
-3z m-4653 9 c-3 -3 -12 -4 -19 -1 -8 3 -5 6 6 6 11 1 17 -2 13 -5z m2958 -44
c5 0 3 -5 -5 -10 -10 -6 -11 -10 -2 -10 6 0 12 -4 12 -9 0 -6 -12 -6 -31 1
-20 7 -27 13 -19 18 9 6 8 10 -5 17 -20 12 -21 23 -3 34 8 5 18 0 28 -16 8
-14 19 -25 25 -25z m-2862 33 c-7 -2 -21 -2 -30 0 -10 3 -4 5 12 5 17 0 24 -2
18 -5z m3567 -3 c0 -5 -4 -10 -10 -10 -5 0 -10 5 -10 10 0 6 5 10 10 10 6 0
10 -4 10 -10z m-6504 -25 c-11 -8 -33 -15 -50 -15 -28 0 -29 1 -10 15 10 8 33
14 49 14 29 0 29 0 11 -14z m5534 0 c7 -9 8 -15 2 -15 -5 0 -12 7 -16 15 -3 8
-4 15 -2 15 2 0 9 -7 16 -15z m-5802 -26 c40 -12 70 -24 68 -26 -7 -7 -110 23
-141 41 -17 9 -23 15 -15 12 8 -3 48 -15 88 -27z m4382 23 c0 -10 -69 -36 -77
-29 -6 6 47 36 65 37 6 0 12 -4 12 -8z m-2063 -34 c-3 -8 -6 -5 -6 6 -1 11 2
17 5 13 3 -3 4 -12 1 -19z m4984 -20 c8 -15 8 -18 0 -14 -6 4 -16 16 -22 28
-8 15 -8 18 0 14 6 -4 16 -16 22 -28z m-7621 2 c0 -5 -5 -10 -11 -10 -5 0 -7
5 -4 10 3 6 8 10 11 10 2 0 4 -4 4 -10z m7425 0 c3 -5 2 -10 -4 -10 -5 0 -13
5 -16 10 -3 6 -2 10 4 10 5 0 13 -4 16 -10z m-6896 -16 c8 -7 -73 -2 -104 6
-19 5 -6 6 35 3 36 -3 67 -7 69 -9z m326 7 c25 -6 20 -9 -36 -15 -36 -5 -75
-6 -85 -4 -17 4 -16 6 6 16 28 12 70 13 115 3z m939 -37 c18 -26 18 -26 -2
-15 -11 6 -22 17 -26 26 -9 23 7 17 28 -11z m4869 -14 c24 -28 22 -31 -13 -19
-16 6 -30 17 -30 25 0 20 23 17 43 -6z m2440 1 c39 -20 34 -35 -9 -28 -20 3
-39 8 -41 11 -8 8 6 38 15 34 4 -2 19 -10 35 -17z m-1933 -13 c0 -16 -3 -19
-11 -11 -6 6 -8 16 -5 22 11 17 16 13 16 -11z m390 -19 c0 -11 -4 -18 -10 -14
-5 3 -7 12 -3 20 7 21 13 19 13 -6z m-6230 1 c0 -5 -4 -10 -10 -10 -5 0 -10 5
-10 10 0 6 5 10 10 10 6 0 10 -4 10 -10z m389 -19 c32 -44 25 -60 -9 -21 -16
19 -29 38 -30 43 -1 16 20 5 39 -22z m-109 11 c0 -16 89 -102 148 -142 78 -54
75 -65 -5 -14 -32 21 -72 47 -90 58 -17 11 -29 24 -27 28 3 4 -7 24 -22 43
-14 19 -21 35 -15 35 6 0 11 -3 11 -8z m3570 -68 c25 -24 25 -26 25 -199 l0
-175 -28 -27 -27 -28 -176 0 -176 0 -24 28 c-23 27 -24 33 -24 201 0 224 -3
219 142 226 56 3 139 4 183 2 68 -4 84 -8 105 -28z m-2420 -159 l0 -185 190 0
190 0 0 -45 0 -45 -185 0 c-197 0 -243 8 -264 48 -7 13 -11 95 -11 216 l0 196
40 0 40 0 0 -185z m871 159 c24 -25 24 -30 27 -230 l3 -204 -45 0 -46 0 0 95
0 95 -145 0 -145 0 0 -95 0 -95 -40 0 -40 0 0 205 c0 273 -16 255 228 255
l179 0 24 -26z m514 1 c22 -22 25 -32 25 -104 0 -70 -3 -83 -24 -108 l-24 -28
-161 -3 -161 -3 0 -95 0 -94 -45 0 -45 0 0 230 0 230 205 0 c205 0 206 0 230
-25z m545 -15 l0 -40 -95 0 -95 0 0 -190 0 -190 -40 0 -40 0 0 190 0 190 -95
0 -95 0 0 40 0 40 230 0 230 0 0 -40z m1005 14 c22 -24 25 -36 25 -105 0 -68
-3 -81 -24 -106 l-24 -28 -161 -3 -161 -3 0 -95 0 -94 -45 0 -45 0 0 230 0
230 205 0 206 0 24 -26z m-4655 -3 c0 -5 -7 -14 -15 -21 -16 -14 -18 -10 -9
14 6 17 24 22 24 7z m6865 -21 c9 -16 13 -30 11 -30 -3 0 -12 14 -21 30 -9 17
-13 30 -11 30 3 0 12 -13 21 -30z m-5815 5 c11 -13 10 -14 -4 -9 -9 3 -16 10
-16 15 0 13 6 11 20 -6z m-2390 -37 c0 -4 -9 -12 -20 -18 -18 -10 -18 -8 -8
21 8 23 13 27 19 17 5 -7 9 -16 9 -20z m8295 -41 c21 -26 35 -50 32 -53 -8 -8
-47 37 -69 81 -22 44 -19 41 37 -28z m-7875 23 c0 -5 -2 -10 -4 -10 -3 0 -8 5
-11 10 -3 6 -1 10 4 10 6 0 11 -4 11 -10z m1925 -37 c61 -68 131 -157 118
-152 -9 3 -107 114 -162 182 -29 36 2 15 44 -30z m-900 27 c-3 -5 -13 -10 -21
-10 -8 0 -12 5 -9 10 3 6 13 10 21 10 8 0 12 -4 9 -10z m5832 -22 c-3 -8 -6
-5 -6 6 -1 11 2 17 5 13 3 -3 4 -12 1 -19z m838 -24 c11 -17 12 -25 4 -22 -6
2 -16 14 -20 26 -11 29 -5 28 16 -4z m-5995 -108 c0 -13 -9 -3 -49 53 -46 64
-38 74 9 11 22 -29 40 -58 40 -64z m65 79 l20 -16 -20 10 c-11 5 -29 17 -40
26 l-20 16 20 -10 c11 -5 29 -17 40 -26z m4940 15 c3 -5 2 -10 -4 -10 -5 0
-13 5 -16 10 -3 6 -2 10 4 10 5 0 13 -4 16 -10z m1355 -63 c0 -6 -9 -2 -20 8
-11 10 -20 23 -20 28 0 6 9 2 20 -8 11 -10 20 -23 20 -28z m-229 -16 c22 -21
39 -47 40 -57 0 -11 2 -27 4 -36 2 -10 2 -18 1 -18 -2 0 -19 24 -39 53 -20 28
-44 62 -53 75 -27 37 4 26 47 -17z m-5016 9 c3 -5 -1 -10 -9 -10 -9 0 -16 5
-16 10 0 6 4 10 9 10 6 0 13 -4 16 -10z m-2640 -30 c3 -5 1 -10 -4 -10 -6 0
-11 5 -11 10 0 6 2 10 4 10 3 0 8 -4 11 -10z m1765 -37 c0 -7 -39 17 -46 28
-3 6 5 3 20 -6 14 -10 26 -19 26 -22z m5735 17 c18 -20 15 -38 -4 -25 -15 9
-33 45 -23 45 5 0 17 -9 27 -20z m-7963 -12 c-7 -7 -12 -8 -12 -2 0 14 12 26
19 19 2 -3 -1 -11 -7 -17z m8260 -93 c10 -18 10 -19 -6 -6 -9 8 -31 33 -48 55
l-32 41 38 -35 c21 -19 43 -44 48 -55z m-8492 62 c0 -8 -7 -14 -15 -14 -25 0
-17 17 13 26 1 1 2 -5 2 -12z m-736 -22 c-4 -8 -8 -15 -10 -15 -2 0 -4 7 -4
15 0 8 4 15 10 15 5 0 7 -7 4 -15z m3066 -55 c6 -11 8 -20 6 -20 -3 0 -10 9
-16 20 -6 11 -8 20 -6 20 3 0 10 -9 16 -20z m290 -6 c0 -2 -9 0 -20 6 -11 6
-20 13 -20 16 0 2 9 0 20 -6 11 -6 20 -13 20 -16z m250 1 c14 -16 10 -18 -14
-9 -9 3 -16 10 -16 15 0 14 16 11 30 -6z m7197 -10 c-3 -15 -28 -15 -49 0 -14
9 -16 14 -6 17 19 7 58 -5 55 -17z m-357 5 c12 -8 12 -10 -4 -16 -11 -4 -24 0
-34 10 -15 15 -15 16 3 16 11 0 27 -4 35 -10z m685 0 c-8 -13 -45 -13 -65 0
-11 7 -3 10 28 10 26 0 41 -4 37 -10z m-7705 -36 c0 -2 -9 0 -20 6 -11 6 -20
13 -20 16 0 2 9 0 20 -6 11 -6 20 -13 20 -16z m6300 -16 c0 -14 -19 1 -31 25
-12 22 -12 22 10 3 11 -11 21 -23 21 -28z m-6085 -103 c17 -13 -21 4 -83 39
-62 35 -116 67 -120 71 -15 16 175 -86 203 -110z m5275 105 c0 -5 -2 -10 -4
-10 -3 0 -8 5 -11 10 -3 6 -1 10 4 10 6 0 11 -4 11 -10z m-8235 -10 c3 -5 1
-10 -4 -10 -6 0 -11 5 -11 10 0 6 2 10 4 10 3 0 8 -4 11 -10z m8666 -12 c11
-21 11 -22 -4 -9 -10 7 -17 17 -17 22 0 15 9 10 21 -13z m94 -9 c16 -16 -20
-10 -41 7 -18 14 -18 15 6 8 14 -3 29 -10 35 -15z m980 11 c3 -6 -1 -7 -9 -4
-18 7 -21 14 -7 14 6 0 13 -4 16 -10z m-616 -128 c14 -12 22 -24 20 -27 -7 -7
-117 93 -131 118 -6 13 9 3 38 -23 27 -25 60 -55 73 -68z m-167 41 c30 -36 30
-47 0 -19 -18 17 -32 31 -32 33 0 9 19 1 32 -14z m929 -11 c-7 -2 -18 1 -23 6
-8 8 -4 9 13 5 13 -4 18 -8 10 -11z m-1210 -9 c13 -16 12 -17 -3 -4 -10 7 -18
15 -18 17 0 8 8 3 21 -13z m-5521 -9 l35 -13 -45 0 c-25 0 -61 7 -80 14 l-35
14 45 -1 c25 -1 61 -7 80 -14z m300 6 c-14 -4 -45 -8 -70 -8 l-45 1 40 7 c22
4 54 7 70 8 29 0 29 0 5 -8z m-365 -55 c19 -15 18 -15 -10 -1 -16 8 -39 22
-50 31 -19 15 -18 15 10 1 17 -8 39 -22 50 -31z m7455 35 c11 -7 6 -10 -22
-10 -20 0 -40 5 -43 10 -8 13 45 13 65 0z m-7979 -17 c13 -16 12 -17 -3 -4
-10 7 -18 15 -18 17 0 8 8 3 21 -13z m7699 2 c11 -13 8 -15 -19 -15 -21 0 -31
5 -31 15 0 8 8 15 19 15 10 0 24 -7 31 -15z m-6747 -2 c-7 -2 -19 -2 -25 0 -7
3 -2 5 12 5 14 0 19 -2 13 -5z m5316 -72 c-12 -4 -69 47 -69 61 0 5 18 -6 40
-24 21 -18 34 -35 29 -37z m-6229 24 c13 -14 21 -25 18 -25 -2 0 -15 11 -28
25 -13 14 -21 25 -18 25 2 0 15 -11 28 -25z m720 -75 c8 -5 11 -10 5 -10 -5 0
-17 5 -25 10 -8 5 -10 10 -5 10 6 0 17 -5 25 -10z m155 -50 c33 -11 44 -17 25
-13 -38 6 -111 31 -95 32 6 0 37 -8 70 -19z m6910 -31 c10 -16 -3 -23 -18 -11
-8 7 -16 9 -19 6 -3 -3 -9 -1 -13 5 -4 7 4 11 19 11 14 0 28 -5 31 -11z
m-6667 -16 c-10 -2 -26 -2 -35 0 -10 3 -2 5 17 5 19 0 27 -2 18 -5z"/>
<path d="M3440 1590 l0 -70 157 0 c86 0 154 2 152 5 -3 2 -47 18 -99 35 -52
17 -119 46 -147 65 -29 19 -55 35 -58 35 -3 0 -5 -31 -5 -70z"/>
<path d="M7498 1773 c6 -2 18 -2 25 0 6 3 1 5 -13 5 -14 0 -19 -2 -12 -5z"/>
<path d="M6813 1631 c-10 -10 -30 -26 -45 -36 -41 -26 -34 -35 24 -35 64 0 54
-14 -22 -29 -30 -6 -81 -21 -112 -34 -53 -20 -57 -24 -60 -57 l-3 -35 -65 -3
c-35 -2 -71 -9 -80 -16 -17 -14 -96 -61 -150 -88 -35 -17 -34 -17 129 -18
l163 0 82 49 c44 26 114 66 153 87 l73 39 0 98 0 97 -35 0 c-20 0 -41 -8 -52
-19z"/>
<path d="M7026 1642 c-8 -7 -8 -112 0 -112 8 0 204 110 204 114 0 6 -199 4
-204 -2z"/>
<path d="M7031 1410 l1 -45 11 33 c7 24 7 36 -1 44 -9 9 -12 1 -11 -32z"/>
<path d="M6110 1340 l0 -60 65 0 c60 0 70 3 157 56 51 31 95 58 97 60 2 2 -68
4 -157 4 l-162 0 0 -60z"/>
<path d="M6890 1390 c0 -5 -21 -25 -46 -45 l-47 -35 51 2 52 3 0 43 c0 23 -2
42 -5 42 -3 0 -5 -4 -5 -10z"/>
<path d="M9720 1536 c0 -9 5 -16 10 -16 6 0 10 4 10 9 0 6 -4 13 -10 16 -5 3
-10 -1 -10 -9z"/>
<path d="M4774 1636 c-3 -7 -4 -35 -2 -62 l3 -49 183 -3 182 -2 0 65 0 65
-180 0 c-144 0 -182 -3 -186 -14z"/>
<path d="M8910 1665 c-7 -9 -11 -17 -9 -19 35 -29 115 -73 125 -69 21 8 5 25
-17 18 -15 -5 -19 -1 -19 18 0 23 -37 67 -57 67 -6 0 -16 -7 -23 -15z"/>
<path d="M9050 1563 c0 -14 12 -26 34 -37 45 -21 63 -21 46 -1 -7 8 -17 15
-23 15 -6 0 -21 10 -34 22 -23 21 -23 21 -23 1z"/>
<path d="M9100 1466 c0 -2 7 -9 15 -16 9 -7 15 -8 15 -2 0 5 -7 12 -15 16 -8
3 -15 4 -15 2z"/>
<path d="M9150 1442 c0 -4 12 -15 25 -25 19 -14 25 -15 25 -4 0 8 -11 19 -25
25 -14 6 -25 8 -25 4z"/>
<path d="M9245 1370 c3 -5 8 -10 11 -10 2 0 4 5 4 10 0 6 -5 10 -11 10 -5 0
-7 -4 -4 -10z"/>
<path d="M9345 1360 c3 -5 11 -10 16 -10 6 0 7 5 4 10 -3 6 -11 10 -16 10 -6
0 -7 -4 -4 -10z"/>
<path d="M9490 1282 c0 -15 46 -52 63 -52 24 0 21 7 -10 35 -28 24 -53 32 -53
17z"/>
<path d="M9440 1186 c0 -8 34 -81 41 -86 3 -3 11 -15 18 -27 6 -13 21 -28 34
-34 20 -11 21 -11 7 5 -13 17 -12 17 23 2 20 -8 37 -12 37 -8 0 12 -84 92 -97
92 -7 0 -13 6 -13 13 -1 11 -50 54 -50 43z"/>
<path d="M1298 1477 c-25 -20 -23 -22 24 -47 45 -23 88 -22 123 4 18 13 17 15
-20 31 -56 24 -106 28 -127 12z"/>
<path d="M1437 1349 c7 -7 15 -10 18 -7 3 3 -2 9 -12 12 -14 6 -15 5 -6 -5z"/>
<path d="M3187 1059 c7 -7 15 -10 18 -7 3 3 -2 9 -12 12 -14 6 -15 5 -6 -5z"/>
<path d="M3574 1048 c-11 -17 6 -22 22 -7 13 14 13 16 -1 16 -9 0 -18 -4 -21
-9z"/>
<path d="M6590 645 l0 -145 145 0 145 0 0 145 0 145 -145 0 -145 0 0 -145z
m140 114 c0 -14 -72 -146 -95 -174 -16 -19 -16 -19 -10 10 12 55 73 175 89
175 9 0 16 -5 16 -11z"/>
<path d="M5040 740 l0 -50 145 0 145 0 0 50 0 50 -145 0 -145 0 0 -50z"/>
<path d="M5560 740 l0 -50 145 0 145 0 0 50 0 50 -145 0 -145 0 0 -50z"/>
<path d="M7110 740 l0 -50 145 0 145 0 0 50 0 50 -145 0 -145 0 0 -50z"/>
<path d="M6515 323 c-52 -11 -269 -91 -345 -126 -167 -77 -330 -139 -490 -185
-25 -7 157 -10 607 -11 l641 -1 -14 60 c-27 117 -92 206 -179 246 -39 19 -66
24 -125 23 -41 -1 -84 -3 -95 -6z m-250 -233 c-20 -22 -35 -26 -35 -10 0 6 7
10 15 10 8 0 15 5 15 10 0 6 5 10 12 10 6 0 3 -9 -7 -20z"/>
</g>
</svg>
