<?xml version="1.0" encoding="UTF-8"?>
<!DOCTYPE svg PUBLIC "-//W3C//DTD SVG 1.1//EN" "http://www.w3.org/Graphics/SVG/1.1/DTD/svg11.dtd">
<svg xmlns="http://www.w3.org/2000/svg" version="1.1" width="256px" height="248px" style="shape-rendering:geometricPrecision; text-rendering:geometricPrecision; image-rendering:optimizeQuality; fill-rule:evenodd; clip-rule:evenodd" xmlns:xlink="http://www.w3.org/1999/xlink">
<g><path style="opacity:0.193" fill="#a99f7e" d="M 70.5,8.5 C 70.5,8.83333 70.5,9.16667 70.5,9.5C 50.1387,8.84529 30.1387,9.51196 10.5,11.5C 9.52216,11.189 8.85549,10.5223 8.5,9.5C 29.1559,8.50035 49.8226,8.16701 70.5,8.5 Z"/></g>
<g><path style="opacity:0.935" fill="#5e9da3" d="M 214.5,8.5 C 222.5,8.5 230.5,8.5 238.5,8.5C 238.5,9.16667 238.5,9.83333 238.5,10.5C 238.167,10.5 237.833,10.5 237.5,10.5C 229.833,10.5 222.167,10.5 214.5,10.5C 214.5,15.1667 214.5,19.8333 214.5,24.5C 214.5,27.8333 214.5,31.1667 214.5,34.5C 214.5,39.5 214.5,44.5 214.5,49.5C 214.5,49.8333 214.5,50.1667 214.5,50.5C 214.167,50.5 213.833,50.5 213.5,50.5C 213.5,50.1667 213.5,49.8333 213.5,49.5C 213.5,44.1667 213.5,38.8333 213.5,33.5C 213.5,30.8333 213.5,28.1667 213.5,25.5C 213.5,20.1667 213.5,14.8333 213.5,9.5C 214.167,9.5 214.5,9.16667 214.5,8.5 Z"/></g>
<g><path style="opacity:1" fill="#b3d0c8" d="M 214.5,8.5 C 214.5,9.16667 214.167,9.5 213.5,9.5C 203.828,9.33353 194.161,9.5002 184.5,10C 187.833,10.3333 191.167,10.6667 194.5,11C 188.886,11.2955 183.553,12.6289 178.5,15C 179.025,15.6924 179.692,16.1924 180.5,16.5C 182.839,15.276 185.172,15.276 187.5,16.5C 183.199,18.1004 178.865,19.6004 174.5,21C 177.332,21.2121 179.998,21.3787 182.5,21.5C 178.122,22.5228 174.122,24.3561 170.5,27C 171.167,27.3333 171.833,27.6667 172.5,28C 170.907,28.9487 169.574,30.1154 168.5,31.5C 166.57,31.7706 165.236,32.7706 164.5,34.5C 164.5,30.8333 164.5,27.1667 164.5,23.5C 166.171,16.3266 170.504,11.4933 177.5,9C 189.829,8.50012 202.162,8.33346 214.5,8.5 Z"/></g>
<g><path style="opacity:1" fill="#fcf5c4" d="M 70.5,9.5 C 70.8333,9.5 71.1667,9.5 71.5,9.5C 71.5,13.1667 71.5,16.8333 71.5,20.5C 70.7387,21.3909 69.7387,22.0576 68.5,22.5C 65.0854,21.5365 61.9187,21.5365 59,22.5C 57.6764,21.1198 56.3431,20.7865 55,21.5C 44.3385,19.8883 33.6718,18.2217 23,16.5C 21.9326,17.1905 20.7659,17.6905 19.5,18C 20.4506,18.7175 20.6172,19.5509 20,20.5C 18.6703,19.4178 17.1703,18.7512 15.5,18.5C 13.4453,16.4451 11.7787,14.1117 10.5,11.5C 30.1387,9.51196 50.1387,8.84529 70.5,9.5 Z"/></g>
<g><path style="opacity:1" fill="#bbd6c0" d="M 71.5,9.5 C 78.5,9.5 85.5,9.5 92.5,9.5C 92.5,11.5 92.5,13.5 92.5,15.5C 91.1266,15.3433 89.7932,15.51 88.5,16C 83.9699,19.8551 79.1366,23.3551 74,26.5C 72.5962,32.0438 72.0962,37.7104 72.5,43.5C 72.6716,44.4916 72.3382,45.1583 71.5,45.5C 71.5,43.8333 71.5,42.1667 71.5,40.5C 71.5,33.8333 71.5,27.1667 71.5,20.5C 71.5,16.8333 71.5,13.1667 71.5,9.5 Z"/></g>
<g><path style="opacity:1" fill="#338890" d="M 237.5,10.5 C 237.664,13.1873 237.497,15.854 237,18.5C 236.692,17.6919 236.192,17.0253 235.5,16.5C 229.061,20.0408 222.895,24.0408 217,28.5C 216.066,27.1416 215.232,25.8083 214.5,24.5C 214.5,19.8333 214.5,15.1667 214.5,10.5C 222.167,10.5 229.833,10.5 237.5,10.5 Z"/></g>
<g><path style="opacity:1" fill="#abc9b2" d="M 70.5,9.5 C 70.5,9.16667 70.5,8.83333 70.5,8.5C 78.1667,8.5 85.8333,8.5 93.5,8.5C 93.5,11.5 93.5,14.5 93.5,17.5C 92.6733,22.6509 92.1733,27.9842 92,33.5C 91.5073,30.0153 90.0073,29.5153 87.5,32C 83.2002,35.2981 79.2002,38.9648 75.5,43C 74.552,43.4828 73.552,43.6495 72.5,43.5C 72.0962,37.7104 72.5962,32.0438 74,26.5C 79.1366,23.3551 83.9699,19.8551 88.5,16C 89.7932,15.51 91.1266,15.3433 92.5,15.5C 92.5,13.5 92.5,11.5 92.5,9.5C 85.5,9.5 78.5,9.5 71.5,9.5C 71.1667,9.5 70.8333,9.5 70.5,9.5 Z"/></g>
<g><path style="opacity:1" fill="#2d7b85" d="M 237.5,10.5 C 237.833,10.5 238.167,10.5 238.5,10.5C 238.5,14.5 238.5,18.5 238.5,22.5C 237.698,23.9516 237.198,25.6183 237,27.5C 236.667,27.1667 236.333,26.8333 236,26.5C 233.167,28.6667 230.333,30.8333 227.5,33C 223.103,33.7092 219.103,35.2092 215.5,37.5C 215.737,36.209 215.404,35.209 214.5,34.5C 214.5,31.1667 214.5,27.8333 214.5,24.5C 215.232,25.8083 216.066,27.1416 217,28.5C 222.895,24.0408 229.061,20.0408 235.5,16.5C 236.192,17.0253 236.692,17.6919 237,18.5C 237.497,15.854 237.664,13.1873 237.5,10.5 Z"/></g>
<g><path style="opacity:1" fill="#a3ccc2" d="M 213.5,9.5 C 213.5,14.8333 213.5,20.1667 213.5,25.5C 212.584,25.0183 211.584,24.685 210.5,24.5C 203.982,26.1602 197.315,26.9935 190.5,27C 188.377,27.8147 186.377,28.8147 184.5,30C 179.971,29.344 175.804,30.5106 172,33.5C 170.698,32.9152 169.531,32.2485 168.5,31.5C 169.574,30.1154 170.907,28.9487 172.5,28C 171.833,27.6667 171.167,27.3333 170.5,27C 174.122,24.3561 178.122,22.5228 182.5,21.5C 179.998,21.3787 177.332,21.2121 174.5,21C 178.865,19.6004 183.199,18.1004 187.5,16.5C 185.172,15.276 182.839,15.276 180.5,16.5C 179.692,16.1924 179.025,15.6924 178.5,15C 183.553,12.6289 188.886,11.2955 194.5,11C 191.167,10.6667 187.833,10.3333 184.5,10C 194.161,9.5002 203.828,9.33353 213.5,9.5 Z"/></g>
<g><path style="opacity:1" fill="#fcecbb" d="M 71.5,20.5 C 71.5,27.1667 71.5,33.8333 71.5,40.5C 69.4642,37.4896 66.7975,36.8229 63.5,38.5C 53.8572,37.4535 44.3572,36.1201 35,34.5C 33.7741,34.6448 32.6074,34.9781 31.5,35.5C 30.6641,33.0602 28.9975,31.7268 26.5,31.5C 23.081,27.0212 19.4143,22.6878 15.5,18.5C 17.1703,18.7512 18.6703,19.4178 20,20.5C 20.6172,19.5509 20.4506,18.7175 19.5,18C 20.7659,17.6905 21.9326,17.1905 23,16.5C 33.6718,18.2217 44.3385,19.8883 55,21.5C 56.3431,20.7865 57.6764,21.1198 59,22.5C 61.9187,21.5365 65.0854,21.5365 68.5,22.5C 69.7387,22.0576 70.7387,21.3909 71.5,20.5 Z"/></g>
<g><path style="opacity:0.989" fill="#266975" d="M 238.5,22.5 C 238.5,31.5 238.5,40.5 238.5,49.5C 230.5,49.5 222.5,49.5 214.5,49.5C 214.5,44.5 214.5,39.5 214.5,34.5C 215.404,35.209 215.737,36.209 215.5,37.5C 219.103,35.2092 223.103,33.7092 227.5,33C 230.333,30.8333 233.167,28.6667 236,26.5C 236.333,26.8333 236.667,27.1667 237,27.5C 237.198,25.6183 237.698,23.9516 238.5,22.5 Z"/></g>
<g><path style="opacity:1" fill="#90bfb6" d="M 213.5,25.5 C 213.5,28.1667 213.5,30.8333 213.5,33.5C 212.735,33.0766 211.902,32.7432 211,32.5C 199.1,37.2847 186.767,40.618 174,42.5C 166.85,42.3227 166.683,41.1561 173.5,39C 170.77,38.2716 168.103,38.4383 165.5,39.5C 164.548,37.9547 164.215,36.288 164.5,34.5C 165.236,32.7706 166.57,31.7706 168.5,31.5C 169.531,32.2485 170.698,32.9152 172,33.5C 175.804,30.5106 179.971,29.344 184.5,30C 186.377,28.8147 188.377,27.8147 190.5,27C 197.315,26.9935 203.982,26.1602 210.5,24.5C 211.584,24.685 212.584,25.0183 213.5,25.5 Z"/></g>
<g><path style="opacity:1" fill="#99b9a1" d="M 93.5,17.5 C 93.5,27.8333 93.5,38.1667 93.5,48.5C 93.5,60.8333 93.5,73.1667 93.5,85.5C 92.5119,80.3595 92.1786,75.0262 92.5,69.5C 92.9622,61.9916 92.4622,54.6583 91,47.5C 87.9151,52.7954 83.4151,56.2954 77.5,58C 75.981,59.3513 74.6477,60.8513 73.5,62.5C 72.8165,62.1373 72.1499,61.8039 71.5,61.5C 71.5,56.1667 71.5,50.8333 71.5,45.5C 72.3382,45.1583 72.6716,44.4916 72.5,43.5C 73.552,43.6495 74.552,43.4828 75.5,43C 79.2002,38.9648 83.2002,35.2981 87.5,32C 90.0073,29.5153 91.5073,30.0153 92,33.5C 92.1733,27.9842 92.6733,22.6509 93.5,17.5 Z"/></g>
<g><path style="opacity:1" fill="#7db3ac" d="M 164.5,23.5 C 164.5,27.1667 164.5,30.8333 164.5,34.5C 164.215,36.288 164.548,37.9547 165.5,39.5C 168.103,38.4383 170.77,38.2716 173.5,39C 166.683,41.1561 166.85,42.3227 174,42.5C 186.767,40.618 199.1,37.2847 211,32.5C 211.902,32.7432 212.735,33.0766 213.5,33.5C 213.5,38.8333 213.5,44.1667 213.5,49.5C 211.304,49.41 209.137,49.0767 207,48.5C 195.467,50.5383 183.967,52.5383 172.5,54.5C 169.833,53.5 167.167,52.5 164.5,51.5C 164.737,50.209 164.404,49.209 163.5,48.5C 163.174,39.9832 163.507,31.6499 164.5,23.5 Z"/></g>
<g><path style="opacity:1" fill="#6fa9a3" d="M 213.5,49.5 C 213.5,49.8333 213.5,50.1667 213.5,50.5C 211.901,50.2322 210.568,50.5655 209.5,51.5C 208.833,51.5 208.5,51.8333 208.5,52.5C 205.418,54.0748 202.751,56.2415 200.5,59C 193.995,60.9334 187.329,62.1001 180.5,62.5C 177.728,61.9743 175.062,61.1409 172.5,60C 174.618,59.7398 176.284,58.7398 177.5,57C 175.347,56.9005 173.681,56.0672 172.5,54.5C 183.967,52.5383 195.467,50.5383 207,48.5C 209.137,49.0767 211.304,49.41 213.5,49.5 Z"/></g>
<g><path style="opacity:1" fill="#244450" d="M 238.5,8.5 C 239.496,22.3234 239.829,36.3234 239.5,50.5C 231.167,50.5 222.833,50.5 214.5,50.5C 214.5,50.1667 214.5,49.8333 214.5,49.5C 222.5,49.5 230.5,49.5 238.5,49.5C 238.5,40.5 238.5,31.5 238.5,22.5C 238.5,18.5 238.5,14.5 238.5,10.5C 238.5,9.83333 238.5,9.16667 238.5,8.5 Z"/></g>
<g><path style="opacity:1" fill="#f4dca8" d="M 26.5,31.5 C 28.9975,31.7268 30.6641,33.0602 31.5,35.5C 32.6074,34.9781 33.7741,34.6448 35,34.5C 44.3572,36.1201 53.8572,37.4535 63.5,38.5C 66.7975,36.8229 69.4642,37.4896 71.5,40.5C 71.5,42.1667 71.5,43.8333 71.5,45.5C 71.5,50.8333 71.5,56.1667 71.5,61.5C 71.5,62.5 71.5,63.5 71.5,64.5C 67.9564,62.257 64.1231,61.9237 60,63.5C 55.1799,62.88 50.3466,62.38 45.5,62C 42.4937,61.6676 39.6604,60.8343 37,59.5C 36.1482,60.5707 35.3149,61.5707 34.5,62.5C 34.8245,55.3134 34.4912,48.3134 33.5,41.5C 31.1792,38.2041 28.8458,34.8708 26.5,31.5 Z"/></g>
<g><path style="opacity:1" fill="#649c98" d="M 164.5,51.5 C 167.167,52.5 169.833,53.5 172.5,54.5C 173.681,56.0672 175.347,56.9005 177.5,57C 176.284,58.7398 174.618,59.7398 172.5,60C 175.062,61.1409 177.728,61.9743 180.5,62.5C 187.329,62.1001 193.995,60.9334 200.5,59C 202.751,56.2415 205.418,54.0748 208.5,52.5C 208.736,55.6085 208.403,58.6085 207.5,61.5C 207.167,61.5 206.833,61.5 206.5,61.5C 205.833,61.5 205.5,61.8333 205.5,62.5C 205.167,62.5 204.833,62.5 204.5,62.5C 196.068,67.5973 187.402,72.264 178.5,76.5C 176.842,75.8186 175.175,74.9853 173.5,74C 175.246,73.5291 176.913,72.8624 178.5,72C 173.259,70.2182 168.592,67.7182 164.5,64.5C 164.5,60.1667 164.5,55.8333 164.5,51.5 Z"/></g>
<g><path style="opacity:1" fill="#3fafb6" d="M 93.5,48.5 C 95.1667,48.5 96.8333,48.5 98.5,48.5C 98.5,48.8333 98.5,49.1667 98.5,49.5C 98.1667,49.5 97.8333,49.5 97.5,49.5C 96.2132,50.8714 95.5465,52.7047 95.5,55C 96.0479,65.5665 96.7146,76.0665 97.5,86.5C 96.1667,86.5 94.8333,86.5 93.5,86.5C 93.5,86.1667 93.5,85.8333 93.5,85.5C 93.5,73.1667 93.5,60.8333 93.5,48.5 Z"/></g>
<g><path style="opacity:1" fill="#f7e0aa" d="M 210.5,51.5 C 220.167,51.5 229.833,51.5 239.5,51.5C 239.5,56.5 239.5,61.5 239.5,66.5C 234.101,68.9348 228.434,70.6015 222.5,71.5C 219.416,70.7932 216.416,69.7932 213.5,68.5C 212.702,70.0777 212.202,71.7444 212,73.5C 211.058,66.1937 210.558,58.8604 210.5,51.5 Z"/></g>
<g><path style="opacity:1" fill="#3cccd1" d="M 97.5,49.5 C 99.4363,61.7226 100.77,74.056 101.5,86.5C 100.167,86.5 98.8333,86.5 97.5,86.5C 96.7146,76.0665 96.0479,65.5665 95.5,55C 95.5465,52.7047 96.2132,50.8714 97.5,49.5 Z"/></g>
<g><path style="opacity:1" fill="#23edf6" d="M 97.5,49.5 C 97.8333,49.5 98.1667,49.5 98.5,49.5C 117.17,49.3334 135.836,49.5001 154.5,50C 151.721,50.1492 151.221,50.9826 153,52.5C 153.667,54.1667 153.667,55.8333 153,57.5C 150.828,64.0165 148.661,70.5165 146.5,77C 146.848,79.0545 146.181,81.0545 144.5,83C 146.623,84.1937 148.957,84.8603 151.5,85C 143.173,85.4997 134.84,85.6664 126.5,85.5C 124.031,84.6829 121.365,84.1829 118.5,84C 121.167,83.6667 123.833,83.3333 126.5,83C 121.954,82.1904 121.62,80.8571 125.5,79C 123.913,78.1376 122.246,77.4709 120.5,77C 122.86,75.635 124.527,73.635 125.5,71C 125.167,70.6667 124.833,70.3333 124.5,70C 128.222,66.5813 130.889,62.4146 132.5,57.5C 131.872,55.7419 130.872,54.2419 129.5,53C 123.5,52.3333 117.5,52.3333 111.5,53C 107.13,52.8503 105.797,54.6837 107.5,58.5C 105.586,63.3239 104.586,68.3239 104.5,73.5C 104.32,77.0343 104.987,80.3676 106.5,83.5C 106.291,84.086 105.957,84.586 105.5,85C 107.473,85.4955 109.473,85.6621 111.5,85.5C 111.5,85.8333 111.5,86.1667 111.5,86.5C 108.167,86.5 104.833,86.5 101.5,86.5C 100.77,74.056 99.4363,61.7226 97.5,49.5 Z"/></g>
<g><path style="opacity:1" fill="#1df4fb" d="M 126.5,85.5 C 121.5,85.5 116.5,85.5 111.5,85.5C 109.473,85.6621 107.473,85.4955 105.5,85C 105.957,84.586 106.291,84.086 106.5,83.5C 104.987,80.3676 104.32,77.0343 104.5,73.5C 104.586,68.3239 105.586,63.3239 107.5,58.5C 105.797,54.6837 107.13,52.8503 111.5,53C 117.5,52.3333 123.5,52.3333 129.5,53C 130.872,54.2419 131.872,55.7419 132.5,57.5C 130.889,62.4146 128.222,66.5813 124.5,70C 124.833,70.3333 125.167,70.6667 125.5,71C 124.527,73.635 122.86,75.635 120.5,77C 122.246,77.4709 123.913,78.1376 125.5,79C 121.62,80.8571 121.954,82.1904 126.5,83C 123.833,83.3333 121.167,83.6667 118.5,84C 121.365,84.1829 124.031,84.6829 126.5,85.5 Z"/></g>
<g><path style="opacity:1" fill="#e6ca93" d="M 71.5,64.5 C 71.5,68.8333 71.5,73.1667 71.5,77.5C 69.9826,77.4894 68.8159,76.8228 68,75.5C 65.4777,76.6306 62.811,77.2973 60,77.5C 51.8658,77.6788 43.6992,77.3454 35.5,76.5C 34.4364,73.9175 34.1031,69.2508 34.5,62.5C 35.3149,61.5707 36.1482,60.5707 37,59.5C 39.6604,60.8343 42.4937,61.6676 45.5,62C 50.3466,62.38 55.1799,62.88 60,63.5C 64.1231,61.9237 67.9564,62.257 71.5,64.5 Z"/></g>
<g><path style="opacity:0.127" fill="#9f8f6a" d="M 209.5,51.5 C 210.568,50.5655 211.901,50.2322 213.5,50.5C 213.833,50.5 214.167,50.5 214.5,50.5C 222.833,50.5 231.167,50.5 239.5,50.5C 240.496,65.6576 240.83,80.9909 240.5,96.5C 240.167,96.5 239.833,96.5 239.5,96.5C 239.5,92.1667 239.5,87.8333 239.5,83.5C 239.5,77.8333 239.5,72.1667 239.5,66.5C 239.5,61.5 239.5,56.5 239.5,51.5C 229.833,51.5 220.167,51.5 210.5,51.5C 210.167,51.5 209.833,51.5 209.5,51.5 Z"/></g>
<g><path style="opacity:1" fill="#8ea489" d="M 92.5,69.5 C 91.7784,69.0825 91.2784,68.4158 91,67.5C 86.9131,72.737 81.7464,76.737 75.5,79.5C 74.135,78.1931 72.8016,78.1931 71.5,79.5C 71.5,78.8333 71.5,78.1667 71.5,77.5C 71.5,73.1667 71.5,68.8333 71.5,64.5C 71.5,63.5 71.5,62.5 71.5,61.5C 72.1499,61.8039 72.8165,62.1373 73.5,62.5C 74.6477,60.8513 75.981,59.3513 77.5,58C 83.4151,56.2954 87.9151,52.7954 91,47.5C 92.4622,54.6583 92.9622,61.9916 92.5,69.5 Z"/></g>
<g><path style="opacity:1" fill="#5c8d8a" d="M 164.5,64.5 C 168.592,67.7182 173.259,70.2182 178.5,72C 176.913,72.8624 175.246,73.5291 173.5,74C 175.175,74.9853 176.842,75.8186 178.5,76.5C 175.328,78.2519 172.328,80.2519 169.5,82.5C 167.95,83.4408 166.284,84.1075 164.5,84.5C 164.5,77.8333 164.5,71.1667 164.5,64.5 Z"/></g>
<g><path style="opacity:1" fill="#1db5c2" d="M 160.5,49.5 C 161.5,49.5 162.5,49.5 163.5,49.5C 163.728,61.8592 163.395,74.1926 162.5,86.5C 159.833,86.5 157.167,86.5 154.5,86.5C 155.263,85.7321 156.263,85.2321 157.5,85C 156.328,84.5814 155.328,83.9147 154.5,83C 157.844,72.1041 159.844,60.9374 160.5,49.5 Z"/></g>
<g><path style="opacity:1" fill="#ebcf96" d="M 209.5,51.5 C 209.833,51.5 210.167,51.5 210.5,51.5C 210.558,58.8604 211.058,66.1937 212,73.5C 212.202,71.7444 212.702,70.0777 213.5,68.5C 216.416,69.7932 219.416,70.7932 222.5,71.5C 228.434,70.6015 234.101,68.9348 239.5,66.5C 239.5,72.1667 239.5,77.8333 239.5,83.5C 238.596,84.209 238.263,85.209 238.5,86.5C 231.327,85.9933 224.493,86.9933 218,89.5C 217.667,89.1667 217.333,88.8333 217,88.5C 215.004,88.9963 213.337,89.9963 212,91.5C 211.272,83.0035 210.439,74.6702 209.5,66.5C 209.5,61.5 209.5,56.5 209.5,51.5 Z"/></g>
<g><path style="opacity:1" fill="#29d6e2" d="M 98.5,49.5 C 98.5,49.1667 98.5,48.8333 98.5,48.5C 119.167,48.5 139.833,48.5 160.5,48.5C 160.5,48.8333 160.5,49.1667 160.5,49.5C 159.844,60.9374 157.844,72.1041 154.5,83C 155.328,83.9147 156.328,84.5814 157.5,85C 156.263,85.2321 155.263,85.7321 154.5,86.5C 140.167,86.5 125.833,86.5 111.5,86.5C 111.5,86.1667 111.5,85.8333 111.5,85.5C 116.5,85.5 121.5,85.5 126.5,85.5C 134.84,85.6664 143.173,85.4997 151.5,85C 148.957,84.8603 146.623,84.1937 144.5,83C 146.181,81.0545 146.848,79.0545 146.5,77C 148.661,70.5165 150.828,64.0165 153,57.5C 153.667,55.8333 153.667,54.1667 153,52.5C 151.221,50.9826 151.721,50.1492 154.5,50C 135.836,49.5001 117.17,49.3334 98.5,49.5 Z"/></g>
<g><path style="opacity:1" fill="#2e939e" d="M 160.5,49.5 C 160.5,49.1667 160.5,48.8333 160.5,48.5C 161.5,48.5 162.5,48.5 163.5,48.5C 164.404,49.209 164.737,50.209 164.5,51.5C 164.5,55.8333 164.5,60.1667 164.5,64.5C 164.5,71.1667 164.5,77.8333 164.5,84.5C 164.167,85.1667 163.833,85.8333 163.5,86.5C 163.167,86.5 162.833,86.5 162.5,86.5C 163.395,74.1926 163.728,61.8592 163.5,49.5C 162.5,49.5 161.5,49.5 160.5,49.5 Z"/></g>
<g><path style="opacity:1" fill="#317b83" d="M 204.5,62.5 C 204.723,68.3238 203.89,73.9905 202,79.5C 200.267,82.4762 198.101,84.4762 195.5,85.5C 193.754,86.3953 191.92,87.062 190,87.5C 186.206,86.7703 182.373,86.2703 178.5,86C 175.518,84.7289 172.518,83.5622 169.5,82.5C 172.328,80.2519 175.328,78.2519 178.5,76.5C 187.402,72.264 196.068,67.5973 204.5,62.5 Z"/></g>
<g><path style="opacity:1" fill="#2b717a" d="M 204.5,62.5 C 204.833,62.5 205.167,62.5 205.5,62.5C 205.277,70.1808 204.777,77.8475 204,85.5C 203.581,92.2067 200.081,96.3733 193.5,98C 190.443,98.2565 187.443,98.7565 184.5,99.5C 181.709,97.9602 179.209,98.2936 177,100.5C 172.391,98.558 169.058,95.2246 167,90.5C 166.333,91.8333 165.667,91.8333 165,90.5C 164.79,88.9419 164.29,87.6085 163.5,86.5C 163.833,85.8333 164.167,85.1667 164.5,84.5C 166.284,84.1075 167.95,83.4408 169.5,82.5C 172.518,83.5622 175.518,84.7289 178.5,86C 182.373,86.2703 186.206,86.7703 190,87.5C 191.92,87.062 193.754,86.3953 195.5,85.5C 198.101,84.4762 200.267,82.4762 202,79.5C 203.89,73.9905 204.723,68.3238 204.5,62.5 Z"/></g>
<g><path style="opacity:1" fill="#d2b37b" d="M 33.5,41.5 C 34.4912,48.3134 34.8245,55.3134 34.5,62.5C 34.1031,69.2508 34.4364,73.9175 35.5,76.5C 43.6992,77.3454 51.8658,77.6788 60,77.5C 62.811,77.2973 65.4777,76.6306 68,75.5C 68.8159,76.8228 69.9826,77.4894 71.5,77.5C 71.5,78.1667 71.5,78.8333 71.5,79.5C 71.5,83.1667 71.5,86.8333 71.5,90.5C 66.9891,92.6803 62.1558,94.0137 57,94.5C 53.4168,93.8508 49.7501,93.5175 46,93.5C 41.9085,93.5761 38.0751,94.2428 34.5,95.5C 34.8182,90.9677 34.4849,86.6344 33.5,82.5C 33.5,68.8333 33.5,55.1667 33.5,41.5 Z"/></g>
<g><path style="opacity:1" fill="#839178" d="M 92.5,69.5 C 92.1786,75.0262 92.5119,80.3595 93.5,85.5C 93.5,85.8333 93.5,86.1667 93.5,86.5C 93.5,87.8333 93.5,89.1667 93.5,90.5C 92.8333,92.8333 92.1667,95.1667 91.5,97.5C 91.8256,93.1161 91.4922,88.7828 90.5,84.5C 86.1674,89.6629 80.834,93.3296 74.5,95.5C 73.914,95.2907 73.414,94.9574 73,94.5C 72.5065,96.1341 72.3398,97.8008 72.5,99.5C 72.1667,99.5 71.8333,99.5 71.5,99.5C 71.5,96.5 71.5,93.5 71.5,90.5C 71.5,86.8333 71.5,83.1667 71.5,79.5C 72.8016,78.1931 74.135,78.1931 75.5,79.5C 81.7464,76.737 86.9131,72.737 91,67.5C 91.2784,68.4158 91.7784,69.0825 92.5,69.5 Z"/></g>
<g><path style="opacity:1" fill="#dcbb7e" d="M 209.5,66.5 C 210.439,74.6702 211.272,83.0035 212,91.5C 213.337,89.9963 215.004,88.9963 217,88.5C 217.333,88.8333 217.667,89.1667 218,89.5C 224.493,86.9933 231.327,85.9933 238.5,86.5C 238.263,85.209 238.596,84.209 239.5,83.5C 239.5,87.8333 239.5,92.1667 239.5,96.5C 239.5,96.8333 239.5,97.1667 239.5,97.5C 237.952,97.1788 237.285,96.1788 237.5,94.5C 229.188,95.2395 220.854,95.5728 212.5,95.5C 212.5,98.8333 212.5,102.167 212.5,105.5C 212.5,107.5 212.5,109.5 212.5,111.5C 211.022,103.895 210.022,96.2282 209.5,88.5C 209.5,81.1667 209.5,73.8333 209.5,66.5 Z"/></g>
<g><path style="opacity:1" fill="#79806a" d="M 91.5,97.5 C 91.8134,100.247 91.48,102.914 90.5,105.5C 89.5224,105.023 88.6891,104.357 88,103.5C 86.3067,105.027 84.4734,106.36 82.5,107.5C 79.0344,107.817 75.8677,108.817 73,110.5C 72.5014,106.848 72.3347,103.182 72.5,99.5C 72.3398,97.8008 72.5065,96.1341 73,94.5C 73.414,94.9574 73.914,95.2907 74.5,95.5C 80.834,93.3296 86.1674,89.6629 90.5,84.5C 91.4922,88.7828 91.8256,93.1161 91.5,97.5 Z"/></g>
<g><path style="opacity:0.993" fill="#21606b" d="M 206.5,61.5 C 207.179,79.7042 205.679,97.7042 202,115.5C 198.016,118.837 193.349,120.504 188,120.5C 182.788,119.66 177.622,118.66 172.5,117.5C 169.843,119.114 168.01,118.448 167,115.5C 165.545,121.653 165.045,127.986 165.5,134.5C 165.443,135.609 165.11,136.609 164.5,137.5C 164.167,137.5 163.833,137.5 163.5,137.5C 162.833,137.5 162.167,137.5 161.5,137.5C 161.795,130.412 161.462,123.412 160.5,116.5C 161.5,116.5 162.5,116.5 163.5,116.5C 163.5,106.5 163.5,96.5 163.5,86.5C 164.29,87.6085 164.79,88.9419 165,90.5C 165.667,91.8333 166.333,91.8333 167,90.5C 169.058,95.2246 172.391,98.558 177,100.5C 179.209,98.2936 181.709,97.9602 184.5,99.5C 187.443,98.7565 190.443,98.2565 193.5,98C 200.081,96.3733 203.581,92.2067 204,85.5C 204.777,77.8475 205.277,70.1808 205.5,62.5C 205.5,61.8333 205.833,61.5 206.5,61.5 Z"/></g>
<g><path style="opacity:1" fill="#ceac73" d="M 239.5,97.5 C 239.5,98.8333 239.5,100.167 239.5,101.5C 238.71,102.609 238.21,103.942 238,105.5C 237.692,104.692 237.192,104.025 236.5,103.5C 228.525,104.271 220.525,104.938 212.5,105.5C 212.5,102.167 212.5,98.8333 212.5,95.5C 220.854,95.5728 229.188,95.2395 237.5,94.5C 237.285,96.1788 237.952,97.1788 239.5,97.5 Z"/></g>
<g><path style="opacity:1" fill="#bd9b67" d="M 71.5,90.5 C 71.5,93.5 71.5,96.5 71.5,99.5C 71.5,100.167 71.5,100.833 71.5,101.5C 70.4664,102.687 69.133,103.52 67.5,104C 57.1002,104.61 46.7669,104.943 36.5,105C 35.8742,105.75 35.3742,106.584 35,107.5C 34.5012,103.514 34.3345,99.5138 34.5,95.5C 38.0751,94.2428 41.9085,93.5761 46,93.5C 49.7501,93.5175 53.4168,93.8508 57,94.5C 62.1558,94.0137 66.9891,92.6803 71.5,90.5 Z"/></g>
<g><path style="opacity:1" fill="#a9885a" d="M 33.5,82.5 C 34.4849,86.6344 34.8182,90.9677 34.5,95.5C 34.3345,99.5138 34.5012,103.514 35,107.5C 35.3742,106.584 35.8742,105.75 36.5,105C 46.7669,104.943 57.1002,104.61 67.5,104C 69.133,103.52 70.4664,102.687 71.5,101.5C 71.5,105.833 71.5,110.167 71.5,114.5C 69.3078,116.517 66.6412,117.684 63.5,118C 53.8314,118.292 44.1648,118.125 34.5,117.5C 33.7279,113.548 33.3946,109.548 33.5,105.5C 33.5,97.8333 33.5,90.1667 33.5,82.5 Z"/></g>
<g><path style="opacity:1" fill="#be9b65" d="M 239.5,101.5 C 239.5,104.833 239.5,108.167 239.5,111.5C 238.732,112.263 238.232,113.263 238,114.5C 234.238,112.871 230.238,111.871 226,111.5C 223,112.833 220,112.833 217,111.5C 215.53,112.267 214.03,112.933 212.5,113.5C 212.5,112.833 212.5,112.167 212.5,111.5C 212.5,109.5 212.5,107.5 212.5,105.5C 220.525,104.938 228.525,104.271 236.5,103.5C 237.192,104.025 237.692,104.692 238,105.5C 238.21,103.942 238.71,102.609 239.5,101.5 Z"/></g>
<g><path style="opacity:1" fill="#d5a15b" d="M 209.5,88.5 C 210.022,96.2282 211.022,103.895 212.5,111.5C 212.5,112.167 212.5,112.833 212.5,113.5C 212.5,116.167 212.5,118.833 212.5,121.5C 211.065,120.087 210.065,118.42 209.5,116.5C 209.5,107.167 209.5,97.8333 209.5,88.5 Z"/></g>
<g><path style="opacity:1" fill="#1b505c" d="M 206.5,61.5 C 206.833,61.5 207.167,61.5 207.5,61.5C 207.442,76.8407 207.109,92.1741 206.5,107.5C 205.219,115.973 203.553,124.473 201.5,133C 199.919,133.707 198.419,134.54 197,135.5C 195.667,135.5 194.333,135.5 193,135.5C 190.553,133.387 187.72,132.053 184.5,131.5C 183.289,132.274 183.289,133.107 184.5,134C 183.551,134.617 182.718,134.451 182,133.5C 181.333,134.167 180.667,134.833 180,135.5C 176.049,134.769 172.049,134.102 168,133.5C 167.098,133.743 166.265,134.077 165.5,134.5C 165.045,127.986 165.545,121.653 167,115.5C 168.01,118.448 169.843,119.114 172.5,117.5C 177.622,118.66 182.788,119.66 188,120.5C 193.349,120.504 198.016,118.837 202,115.5C 205.679,97.7042 207.179,79.7042 206.5,61.5 Z"/></g>
<g><path style="opacity:1" fill="#6c6c56" d="M 93.5,90.5 C 93.5,99.1667 93.5,107.833 93.5,116.5C 92.5269,118.948 92.1936,121.615 92.5,124.5C 91.6618,124.842 91.3284,125.508 91.5,126.5C 87.9385,124.975 84.9385,125.809 82.5,129C 78.7934,129.737 75.1268,130.571 71.5,131.5C 71.5,126.833 71.5,122.167 71.5,117.5C 71.5,116.5 71.5,115.5 71.5,114.5C 71.5,110.167 71.5,105.833 71.5,101.5C 71.5,100.833 71.5,100.167 71.5,99.5C 71.8333,99.5 72.1667,99.5 72.5,99.5C 72.3347,103.182 72.5014,106.848 73,110.5C 75.8677,108.817 79.0344,107.817 82.5,107.5C 84.4734,106.36 86.3067,105.027 88,103.5C 88.6891,104.357 89.5224,105.023 90.5,105.5C 91.48,102.914 91.8134,100.247 91.5,97.5C 92.1667,95.1667 92.8333,92.8333 93.5,90.5 Z"/></g>
<g><path style="opacity:1" fill="#898064" d="M 93.5,116.5 C 94.8333,116.5 96.1667,116.5 97.5,116.5C 97.5,123.5 97.5,130.5 97.5,137.5C 96.1667,137.5 94.8333,137.5 93.5,137.5C 93.5,130.5 93.5,123.5 93.5,116.5 Z"/></g>
<g><path style="opacity:1" fill="#c8c69d" d="M 101.5,117.5 C 104.272,117.22 106.772,117.887 109,119.5C 109.617,120.449 109.451,121.282 108.5,122C 110.569,124.066 112.236,126.399 113.5,129C 113.108,130.011 112.441,130.511 111.5,130.5C 112.685,131.853 114.019,133.02 115.5,134C 114.748,134.671 114.414,135.504 114.5,136.5C 109.901,136.8 105.401,136.467 101,135.5C 100.528,129.568 99.6942,123.735 98.5,118C 99.448,117.517 100.448,117.351 101.5,117.5 Z"/></g>
<g><path style="opacity:1" fill="#ab8858" d="M 239.5,111.5 C 239.5,115.833 239.5,120.167 239.5,124.5C 238.778,124.918 238.278,125.584 238,126.5C 231.667,125.833 225.333,125.167 219,124.5C 217.301,125.406 215.467,125.739 213.5,125.5C 213.795,127.735 213.461,129.735 212.5,131.5C 212.5,128.167 212.5,124.833 212.5,121.5C 212.5,118.833 212.5,116.167 212.5,113.5C 214.03,112.933 215.53,112.267 217,111.5C 220,112.833 223,112.833 226,111.5C 230.238,111.871 234.238,112.871 238,114.5C 238.232,113.263 238.732,112.263 239.5,111.5 Z"/></g>
<g><path style="opacity:1" fill="#8b6d49" d="M 33.5,105.5 C 33.3946,109.548 33.7279,113.548 34.5,117.5C 44.1648,118.125 53.8314,118.292 63.5,118C 66.6412,117.684 69.3078,116.517 71.5,114.5C 71.5,115.5 71.5,116.5 71.5,117.5C 70.5386,119.265 70.2053,121.265 70.5,123.5C 65.4714,124.887 60.3047,125.554 55,125.5C 47.7925,123.659 40.6258,122.992 33.5,123.5C 32.1943,117.401 32.1943,111.401 33.5,105.5 Z"/></g>
<g><path style="opacity:1" fill="#399ea7" d="M 139.5,117.5 C 139.5,117.167 139.5,116.833 139.5,116.5C 146.5,116.5 153.5,116.5 160.5,116.5C 161.462,123.412 161.795,130.412 161.5,137.5C 152.5,137.5 143.5,137.5 134.5,137.5C 134.5,137.167 134.5,136.833 134.5,136.5C 134.833,136.5 135.167,136.5 135.5,136.5C 136.833,136.5 138.167,136.5 139.5,136.5C 142.833,136.5 146.167,136.5 149.5,136.5C 152.5,136.5 155.5,136.5 158.5,136.5C 158.19,130.242 158.524,124.076 159.5,118C 155.848,117.501 152.182,117.335 148.5,117.5C 145.5,117.5 142.5,117.5 139.5,117.5 Z"/></g>
<g><path style="opacity:1" fill="#3fbec1" d="M 148.5,117.5 C 152.182,117.335 155.848,117.501 159.5,118C 158.524,124.076 158.19,130.242 158.5,136.5C 155.5,136.5 152.5,136.5 149.5,136.5C 148.432,135.566 147.099,135.232 145.5,135.5C 145.5,129.833 145.5,124.167 145.5,118.5C 146.791,118.737 147.791,118.404 148.5,117.5 Z"/></g>
<g><path style="opacity:1" fill="#98c9b4" d="M 120.5,116.5 C 126.833,116.5 133.167,116.5 139.5,116.5C 139.5,116.833 139.5,117.167 139.5,117.5C 139.167,117.5 138.833,117.5 138.5,117.5C 137.178,117.33 136.011,117.663 135,118.5C 134.599,123.011 134.099,127.511 133.5,132C 133.759,133.787 134.425,135.287 135.5,136.5C 135.167,136.5 134.833,136.5 134.5,136.5C 131.167,136.5 127.833,136.5 124.5,136.5C 124.427,130.939 124.427,125.439 124.5,120C 125.167,119.333 125.833,118.667 126.5,118C 124.292,117.809 122.292,117.309 120.5,116.5 Z"/></g>
<g><path style="opacity:1" fill="#80c7ba" d="M 138.5,117.5 C 139.091,123.275 138.758,129.108 137.5,135C 138.416,135.278 139.082,135.778 139.5,136.5C 138.167,136.5 136.833,136.5 135.5,136.5C 134.425,135.287 133.759,133.787 133.5,132C 134.099,127.511 134.599,123.011 135,118.5C 136.011,117.663 137.178,117.33 138.5,117.5 Z"/></g>
<g><path style="opacity:1" fill="#62c6bf" d="M 138.5,117.5 C 138.833,117.5 139.167,117.5 139.5,117.5C 142.5,117.5 145.5,117.5 148.5,117.5C 147.791,118.404 146.791,118.737 145.5,118.5C 145.5,124.167 145.5,129.833 145.5,135.5C 147.099,135.232 148.432,135.566 149.5,136.5C 146.167,136.5 142.833,136.5 139.5,136.5C 139.082,135.778 138.416,135.278 137.5,135C 138.758,129.108 139.091,123.275 138.5,117.5 Z"/></g>
<g><path style="opacity:1" fill="#aaa584" d="M 97.5,116.5 C 98.8333,116.5 100.167,116.5 101.5,116.5C 101.5,116.833 101.5,117.167 101.5,117.5C 100.448,117.351 99.448,117.517 98.5,118C 99.6942,123.735 100.528,129.568 101,135.5C 105.401,136.467 109.901,136.8 114.5,136.5C 117.833,136.5 121.167,136.5 124.5,136.5C 127.833,136.5 131.167,136.5 134.5,136.5C 134.5,136.833 134.5,137.167 134.5,137.5C 122.167,137.5 109.833,137.5 97.5,137.5C 97.5,130.5 97.5,123.5 97.5,116.5 Z"/></g>
<g><path style="opacity:1" fill="#97744c" d="M 239.5,124.5 C 239.5,126.5 239.5,128.5 239.5,130.5C 238.732,131.263 238.232,132.263 238,133.5C 231.347,132.74 224.514,132.574 217.5,133C 214.601,134.279 212.934,136.445 212.5,139.5C 212.5,136.833 212.5,134.167 212.5,131.5C 213.461,129.735 213.795,127.735 213.5,125.5C 215.467,125.739 217.301,125.406 219,124.5C 225.333,125.167 231.667,125.833 238,126.5C 238.278,125.584 238.778,124.918 239.5,124.5 Z"/></g>
<g><path style="opacity:1" fill="#becdaa" d="M 101.5,117.5 C 101.5,117.167 101.5,116.833 101.5,116.5C 107.833,116.5 114.167,116.5 120.5,116.5C 122.292,117.309 124.292,117.809 126.5,118C 125.833,118.667 125.167,119.333 124.5,120C 124.427,125.439 124.427,130.939 124.5,136.5C 121.167,136.5 117.833,136.5 114.5,136.5C 114.414,135.504 114.748,134.671 115.5,134C 114.019,133.02 112.685,131.853 111.5,130.5C 112.441,130.511 113.108,130.011 113.5,129C 112.236,126.399 110.569,124.066 108.5,122C 109.451,121.282 109.617,120.449 109,119.5C 106.772,117.887 104.272,117.22 101.5,117.5 Z"/></g>
<g><path style="opacity:1" fill="#5d5c4a" d="M 91.5,126.5 C 91.665,129.85 91.4983,133.183 91,136.5C 90.6667,136.167 90.3333,135.833 90,135.5C 84.3575,138.956 78.1908,140.956 71.5,141.5C 71.5,138.5 71.5,135.5 71.5,132.5C 71.5,132.167 71.5,131.833 71.5,131.5C 75.1268,130.571 78.7934,129.737 82.5,129C 84.9385,125.809 87.9385,124.975 91.5,126.5 Z"/></g>
<g><path style="opacity:1" fill="#806445" d="M 71.5,117.5 C 71.5,122.167 71.5,126.833 71.5,131.5C 71.5,131.833 71.5,132.167 71.5,132.5C 70.596,133.209 70.2627,134.209 70.5,135.5C 66.5021,136.937 62.3354,137.604 58,137.5C 50.4498,136.98 42.6164,136.647 34.5,136.5C 34.1667,136.5 33.8333,136.5 33.5,136.5C 33.5,132.167 33.5,127.833 33.5,123.5C 40.6258,122.992 47.7925,123.659 55,125.5C 60.3047,125.554 65.4714,124.887 70.5,123.5C 70.2053,121.265 70.5386,119.265 71.5,117.5 Z"/></g>
<g><path style="opacity:1" fill="#bb8146" d="M 209.5,116.5 C 210.065,118.42 211.065,120.087 212.5,121.5C 212.5,124.833 212.5,128.167 212.5,131.5C 212.5,134.167 212.5,136.833 212.5,139.5C 212.5,140.5 212.5,141.5 212.5,142.5C 211.251,139.913 210.251,137.246 209.5,134.5C 209.5,128.5 209.5,122.5 209.5,116.5 Z"/></g>
<g><path style="opacity:0.999" fill="#164350" d="M 206.5,107.5 C 205.755,121.27 204.255,134.936 202,148.5C 199.927,151.518 197.26,152.185 194,150.5C 185.654,152.275 177.487,152.442 169.5,151C 168.809,149.933 168.309,148.766 168,147.5C 167,147.167 166,146.833 165,146.5C 164.502,143.518 164.335,140.518 164.5,137.5C 165.11,136.609 165.443,135.609 165.5,134.5C 166.265,134.077 167.098,133.743 168,133.5C 172.049,134.102 176.049,134.769 180,135.5C 180.667,134.833 181.333,134.167 182,133.5C 182.718,134.451 183.551,134.617 184.5,134C 183.289,133.107 183.289,132.274 184.5,131.5C 187.72,132.053 190.553,133.387 193,135.5C 194.333,135.5 195.667,135.5 197,135.5C 198.419,134.54 199.919,133.707 201.5,133C 203.553,124.473 205.219,115.973 206.5,107.5 Z"/></g>
<g><path style="opacity:1" fill="#6f583f" d="M 70.5,135.5 C 70.7564,137.792 70.4231,139.959 69.5,142C 59.0545,145.072 48.5545,145.239 38,142.5C 37.3109,143.357 36.4776,144.023 35.5,144.5C 34.52,141.914 34.1866,139.247 34.5,136.5C 42.6164,136.647 50.4498,136.98 58,137.5C 62.3354,137.604 66.5021,136.937 70.5,135.5 Z"/></g>
<g><path style="opacity:1" fill="#7f6042" d="M 239.5,130.5 C 239.8,135.099 239.467,139.599 238.5,144C 233.476,144.665 228.476,144.498 223.5,143.5C 215.179,143.33 211.846,147.33 213.5,155.5C 213.5,157.833 213.5,160.167 213.5,162.5C 213.5,165.5 213.5,168.5 213.5,171.5C 213.768,173.099 213.434,174.432 212.5,175.5C 212.5,164.5 212.5,153.5 212.5,142.5C 212.5,141.5 212.5,140.5 212.5,139.5C 212.934,136.445 214.601,134.279 217.5,133C 224.514,132.574 231.347,132.74 238,133.5C 238.232,132.263 238.732,131.263 239.5,130.5 Z"/></g>
<g><path style="opacity:1" fill="#63503c" d="M 71.5,132.5 C 71.5,135.5 71.5,138.5 71.5,141.5C 71.5,141.833 71.5,142.167 71.5,142.5C 70.7839,144.556 70.1172,146.723 69.5,149C 66.1319,150.551 62.6319,151.717 59,152.5C 53.1858,151.757 47.3524,151.091 41.5,150.5C 38.7884,150.453 36.6217,151.453 35,153.5C 34.8091,151.292 34.3091,149.292 33.5,147.5C 33.5,143.833 33.5,140.167 33.5,136.5C 33.8333,136.5 34.1667,136.5 34.5,136.5C 34.1866,139.247 34.52,141.914 35.5,144.5C 36.4776,144.023 37.3109,143.357 38,142.5C 48.5545,145.239 59.0545,145.072 69.5,142C 70.4231,139.959 70.7564,137.792 70.5,135.5C 70.2627,134.209 70.596,133.209 71.5,132.5 Z"/></g>
<g><path style="opacity:1" fill="#6c553d" d="M 239.5,96.5 C 239.833,96.5 240.167,96.5 240.5,96.5C 240.5,113.167 240.5,129.833 240.5,146.5C 239.549,147.919 239.216,149.585 239.5,151.5C 238.596,152.209 238.263,153.209 238.5,154.5C 230.248,153.025 221.914,153.358 213.5,155.5C 211.846,147.33 215.179,143.33 223.5,143.5C 228.476,144.498 233.476,144.665 238.5,144C 239.467,139.599 239.8,135.099 239.5,130.5C 239.5,128.5 239.5,126.5 239.5,124.5C 239.5,120.167 239.5,115.833 239.5,111.5C 239.5,108.167 239.5,104.833 239.5,101.5C 239.5,100.167 239.5,98.8333 239.5,97.5C 239.5,97.1667 239.5,96.8333 239.5,96.5 Z"/></g>
<g><path style="opacity:1" fill="#4b4a3e" d="M 92.5,124.5 C 92.5,136.833 92.5,149.167 92.5,161.5C 91.71,160.391 91.21,159.058 91,157.5C 90.1074,156.919 89.1074,156.585 88,156.5C 83.9157,157.822 79.749,158.822 75.5,159.5C 74.914,159.291 74.414,158.957 74,158.5C 72.8549,159.636 71.6883,160.636 70.5,161.5C 67.5,161.833 66.1667,160.5 66.5,157.5C 68.7079,156.977 70.2079,155.644 71,153.5C 71.4986,149.848 71.6653,146.182 71.5,142.5C 71.5,142.167 71.5,141.833 71.5,141.5C 78.1908,140.956 84.3575,138.956 90,135.5C 90.3333,135.833 90.6667,136.167 91,136.5C 91.4983,133.183 91.665,129.85 91.5,126.5C 91.3284,125.508 91.6618,124.842 92.5,124.5 Z"/></g>
<g><path style="opacity:1" fill="#1b3841" d="M 209.5,51.5 C 209.5,56.5 209.5,61.5 209.5,66.5C 209.5,73.8333 209.5,81.1667 209.5,88.5C 209.5,97.8333 209.5,107.167 209.5,116.5C 209.5,122.5 209.5,128.5 209.5,134.5C 209.5,146.5 209.5,158.5 209.5,170.5C 209.737,171.791 209.404,172.791 208.5,173.5C 208.5,163.5 208.5,153.5 208.5,143.5C 208.667,127.163 208.5,110.83 208,94.5C 207.766,114.88 206.766,135.213 205,155.5C 204.107,161.966 200.774,166.633 195,169.5C 193.352,167.972 191.352,167.305 189,167.5C 182.503,168.808 176.17,169.808 170,170.5C 168.395,169.899 167.062,168.899 166,167.5C 165.809,169.708 165.309,171.708 164.5,173.5C 165.066,166.549 164.399,159.882 162.5,153.5C 163.488,148.36 163.821,143.026 163.5,137.5C 163.833,137.5 164.167,137.5 164.5,137.5C 164.335,140.518 164.502,143.518 165,146.5C 166,146.833 167,147.167 168,147.5C 168.309,148.766 168.809,149.933 169.5,151C 177.487,152.442 185.654,152.275 194,150.5C 197.26,152.185 199.927,151.518 202,148.5C 204.255,134.936 205.755,121.27 206.5,107.5C 207.109,92.1741 207.442,76.8407 207.5,61.5C 208.403,58.6085 208.736,55.6085 208.5,52.5C 208.5,51.8333 208.833,51.5 209.5,51.5 Z"/></g>
<g><path style="opacity:1" fill="#9f6939" d="M 209.5,134.5 C 210.251,137.246 211.251,139.913 212.5,142.5C 212.5,153.5 212.5,164.5 212.5,175.5C 212.598,177.553 211.931,179.22 210.5,180.5C 210.507,177.962 210.841,175.462 211.5,173C 211.316,171.624 210.649,170.791 209.5,170.5C 209.5,158.5 209.5,146.5 209.5,134.5 Z"/></g>
<g><path style="opacity:1" fill="#564738" d="M 71.5,142.5 C 71.6653,146.182 71.4986,149.848 71,153.5C 70.2079,155.644 68.7079,156.977 66.5,157.5C 63.4157,159.048 60.0823,160.048 56.5,160.5C 50.0446,159.614 43.378,159.114 36.5,159C 35.7511,160.734 35.2511,162.567 35,164.5C 34.7679,163.263 34.2679,162.263 33.5,161.5C 33.5,156.833 33.5,152.167 33.5,147.5C 34.3091,149.292 34.8091,151.292 35,153.5C 36.6217,151.453 38.7884,150.453 41.5,150.5C 47.3524,151.091 53.1858,151.757 59,152.5C 62.6319,151.717 66.1319,150.551 69.5,149C 70.1172,146.723 70.7839,144.556 71.5,142.5 Z"/></g>
<g><path style="opacity:1" fill="#5c4b3a" d="M 239.5,151.5 C 239.5,153.833 239.5,156.167 239.5,158.5C 238.778,158.918 238.278,159.584 238,160.5C 229.619,158.967 221.452,159.634 213.5,162.5C 213.5,160.167 213.5,157.833 213.5,155.5C 221.914,153.358 230.248,153.025 238.5,154.5C 238.263,153.209 238.596,152.209 239.5,151.5 Z"/></g>
<g><path style="opacity:1" fill="#7c9986" d="M 101.5,154.5 C 102.139,159.657 102.805,164.823 103.5,170C 103.355,170.772 103.022,171.439 102.5,172C 104.708,172.191 106.708,172.691 108.5,173.5C 105.833,173.5 103.167,173.5 100.5,173.5C 98.6068,167.455 97.9401,161.121 98.5,154.5C 99.5,154.5 100.5,154.5 101.5,154.5 Z"/></g>
<g><path style="opacity:1" fill="#85ae9b" d="M 101.5,154.5 C 103.5,154.5 105.5,154.5 107.5,154.5C 108.531,160.442 109.197,166.442 109.5,172.5C 110.791,172.263 111.791,172.596 112.5,173.5C 111.167,173.5 109.833,173.5 108.5,173.5C 106.708,172.691 104.708,172.191 102.5,172C 103.022,171.439 103.355,170.772 103.5,170C 102.805,164.823 102.139,159.657 101.5,154.5 Z"/></g>
<g><path style="opacity:1" fill="#57d2ca" d="M 113.5,154.5 C 114.833,154.5 116.167,154.5 117.5,154.5C 118.209,155.404 119.209,155.737 120.5,155.5C 120.5,161.167 120.5,166.833 120.5,172.5C 124.371,172.185 128.038,172.518 131.5,173.5C 125.833,173.5 120.167,173.5 114.5,173.5C 113.542,167.256 113.209,160.923 113.5,154.5 Z"/></g>
<g><path style="opacity:1" fill="#25b8c5" d="M 150.5,154.5 C 152.833,154.5 155.167,154.5 157.5,154.5C 157.5,160.833 157.5,167.167 157.5,173.5C 153.5,173.5 149.5,173.5 145.5,173.5C 146.952,172.698 148.618,172.198 150.5,172C 148.956,171.71 147.623,171.044 146.5,170C 149.289,165.68 150.622,161.18 150.5,156.5C 151.552,156.649 152.552,156.483 153.5,156C 152.263,155.768 151.263,155.268 150.5,154.5 Z"/></g>
<g><path style="opacity:1" fill="#7dbbaa" d="M 107.5,154.5 C 107.833,154.5 108.167,154.5 108.5,154.5C 110.167,154.5 111.833,154.5 113.5,154.5C 113.209,160.923 113.542,167.256 114.5,173.5C 113.833,173.5 113.167,173.5 112.5,173.5C 111.791,172.596 110.791,172.263 109.5,172.5C 109.197,166.442 108.531,160.442 107.5,154.5 Z"/></g>
<g><path style="opacity:1" fill="#29c8d4" d="M 138.5,154.5 C 142.5,154.5 146.5,154.5 150.5,154.5C 151.263,155.268 152.263,155.768 153.5,156C 152.552,156.483 151.552,156.649 150.5,156.5C 150.622,161.18 149.289,165.68 146.5,170C 147.623,171.044 148.956,171.71 150.5,172C 148.618,172.198 146.952,172.698 145.5,173.5C 143.167,173.5 140.833,173.5 138.5,173.5C 138.279,172.265 137.612,171.265 136.5,170.5C 138.184,165.311 138.851,159.978 138.5,154.5 Z"/></g>
<g><path style="opacity:1" fill="#494035" d="M 66.5,157.5 C 66.1667,160.5 67.5,161.833 70.5,161.5C 71.3029,162.423 71.4696,163.423 71,164.5C 66.0598,168.863 60.2264,170.863 53.5,170.5C 47.5392,169.441 41.5392,168.774 35.5,168.5C 35.6633,170.857 35.4966,173.19 35,175.5C 34.79,173.942 34.29,172.609 33.5,171.5C 33.5,168.167 33.5,164.833 33.5,161.5C 34.2679,162.263 34.7679,163.263 35,164.5C 35.2511,162.567 35.7511,160.734 36.5,159C 43.378,159.114 50.0446,159.614 56.5,160.5C 60.0823,160.048 63.4157,159.048 66.5,157.5 Z"/></g>
<g><path style="opacity:1" fill="#30e2e4" d="M 117.5,154.5 C 124.5,154.5 131.5,154.5 138.5,154.5C 138.851,159.978 138.184,165.311 136.5,170.5C 137.612,171.265 138.279,172.265 138.5,173.5C 136.167,173.5 133.833,173.5 131.5,173.5C 128.038,172.518 124.371,172.185 120.5,172.5C 120.5,166.833 120.5,161.167 120.5,155.5C 119.209,155.737 118.209,155.404 117.5,154.5 Z"/></g>
<g><path style="opacity:1" fill="#3e3c35" d="M 92.5,161.5 C 92.1717,173.345 92.5051,185.012 93.5,196.5C 93.5,198.167 93.5,199.833 93.5,201.5C 91.7868,200.365 91.1201,198.698 91.5,196.5C 91.5,192.833 91.5,189.167 91.5,185.5C 91.839,180.07 91.339,174.736 90,169.5C 85.2684,171.286 80.1017,172.786 74.5,174C 73.5,175 72.5,176 71.5,177C 67.5318,177.823 63.8652,179.323 60.5,181.5C 59.1667,180.167 57.8333,180.167 56.5,181.5C 55.4937,181.062 55.4937,180.396 56.5,179.5C 49.486,177.306 42.486,176.639 35.5,177.5C 35.0316,183.329 34.3649,188.996 33.5,194.5C 33.5,186.833 33.5,179.167 33.5,171.5C 34.29,172.609 34.79,173.942 35,175.5C 35.4966,173.19 35.6633,170.857 35.5,168.5C 41.5392,168.774 47.5392,169.441 53.5,170.5C 60.2264,170.863 66.0598,168.863 71,164.5C 71.4696,163.423 71.3029,162.423 70.5,161.5C 71.6883,160.636 72.8549,159.636 74,158.5C 74.414,158.957 74.914,159.291 75.5,159.5C 79.749,158.822 83.9157,157.822 88,156.5C 89.1074,156.585 90.1074,156.919 91,157.5C 91.21,159.058 91.71,160.391 92.5,161.5 Z"/></g>
<g><path style="opacity:1" fill="#4d4437" d="M 239.5,158.5 C 239.879,163.297 239.379,167.964 238,172.5C 230.517,170.141 222.85,170.141 215,172.5C 214.617,171.944 214.117,171.611 213.5,171.5C 213.5,168.5 213.5,165.5 213.5,162.5C 221.452,159.634 229.619,158.967 238,160.5C 238.278,159.584 238.778,158.918 239.5,158.5 Z"/></g>
<g><path style="opacity:0.995" fill="#102835" d="M 205.5,164.5 C 206.276,173.012 203.609,180.179 197.5,186C 189.811,190.337 182.477,194.504 175.5,198.5C 172.724,198.054 170.224,197.054 168,195.5C 166.085,198.862 165.085,202.529 165,206.5C 164.5,197.506 164.334,188.506 164.5,179.5C 166.145,180.479 167.479,181.812 168.5,183.5C 169.795,184.098 171.128,184.598 172.5,185C 172.381,186.281 172.881,187.448 174,188.5C 180.193,187.26 186.359,185.76 192.5,184C 195.791,182.861 198.625,181.028 201,178.5C 203.139,173.914 204.639,169.247 205.5,164.5 Z"/></g>
<g><path style="opacity:1" fill="#2097a9" d="M 157.5,154.5 C 158.833,154.5 160.167,154.5 161.5,154.5C 161.5,160.833 161.5,167.167 161.5,173.5C 160.167,173.5 158.833,173.5 157.5,173.5C 157.5,167.167 157.5,160.833 157.5,154.5 Z"/></g>
<g><path style="opacity:1" fill="#29576e" d="M 108.5,154.5 C 108.5,154.167 108.5,153.833 108.5,153.5C 126.5,153.5 144.5,153.5 162.5,153.5C 164.399,159.882 165.066,166.549 164.5,173.5C 163.833,173.5 163.167,173.5 162.5,173.5C 162.167,173.5 161.833,173.5 161.5,173.5C 161.5,167.167 161.5,160.833 161.5,154.5C 160.167,154.5 158.833,154.5 157.5,154.5C 155.167,154.5 152.833,154.5 150.5,154.5C 146.5,154.5 142.5,154.5 138.5,154.5C 131.5,154.5 124.5,154.5 117.5,154.5C 116.167,154.5 114.833,154.5 113.5,154.5C 111.833,154.5 110.167,154.5 108.5,154.5 Z"/></g>
<g><path style="opacity:1" fill="#12303b" d="M 208.5,143.5 C 207.732,144.263 207.232,145.263 207,146.5C 206.301,152.489 205.801,158.489 205.5,164.5C 204.639,169.247 203.139,173.914 201,178.5C 198.625,181.028 195.791,182.861 192.5,184C 186.359,185.76 180.193,187.26 174,188.5C 172.881,187.448 172.381,186.281 172.5,185C 171.128,184.598 169.795,184.098 168.5,183.5C 167.479,181.812 166.145,180.479 164.5,179.5C 164.5,177.5 164.5,175.5 164.5,173.5C 165.309,171.708 165.809,169.708 166,167.5C 167.062,168.899 168.395,169.899 170,170.5C 176.17,169.808 182.503,168.808 189,167.5C 191.352,167.305 193.352,167.972 195,169.5C 200.774,166.633 204.107,161.966 205,155.5C 206.766,135.213 207.766,114.88 208,94.5C 208.5,110.83 208.667,127.163 208.5,143.5 Z"/></g>
<g><path style="opacity:1" fill="#3e3b34" d="M 240.5,146.5 C 240.679,157.19 240.345,167.857 239.5,178.5C 238.596,179.209 238.263,180.209 238.5,181.5C 235.807,181.572 233.14,181.905 230.5,182.5C 225.618,180.875 220.784,180.209 216,180.5C 214.249,182.241 212.416,182.908 210.5,182.5C 210.5,181.833 210.5,181.167 210.5,180.5C 211.931,179.22 212.598,177.553 212.5,175.5C 213.434,174.432 213.768,173.099 213.5,171.5C 214.117,171.611 214.617,171.944 215,172.5C 222.85,170.141 230.517,170.141 238,172.5C 239.379,167.964 239.879,163.297 239.5,158.5C 239.5,156.167 239.5,153.833 239.5,151.5C 239.216,149.585 239.549,147.919 240.5,146.5 Z"/></g>
<g><path style="opacity:1" fill="#353633" d="M 91.5,185.5 C 90.6909,183.708 90.1909,181.708 90,179.5C 89.4387,178.978 88.772,178.645 88,178.5C 85.1566,179.621 82.3232,180.621 79.5,181.5C 78.8333,181.167 78.1667,180.833 77.5,180.5C 73.1176,184.36 68.1176,187.193 62.5,189C 54.463,189.431 46.6297,189.598 39,189.5C 35.9793,185.401 34.8126,186.067 35.5,191.5C 35.498,197.523 35.1646,203.523 34.5,209.5C 34.1667,209.5 33.8333,209.5 33.5,209.5C 33.5,204.5 33.5,199.5 33.5,194.5C 34.3649,188.996 35.0316,183.329 35.5,177.5C 42.486,176.639 49.486,177.306 56.5,179.5C 55.4937,180.396 55.4937,181.062 56.5,181.5C 57.8333,180.167 59.1667,180.167 60.5,181.5C 63.8652,179.323 67.5318,177.823 71.5,177C 72.5,176 73.5,175 74.5,174C 80.1017,172.786 85.2684,171.286 90,169.5C 91.339,174.736 91.839,180.07 91.5,185.5 Z"/></g>
<g><path style="opacity:0.592" fill="#5b6c62" d="M 93.5,153.5 C 98.5,153.5 103.5,153.5 108.5,153.5C 108.5,153.833 108.5,154.167 108.5,154.5C 108.167,154.5 107.833,154.5 107.5,154.5C 105.5,154.5 103.5,154.5 101.5,154.5C 100.5,154.5 99.5,154.5 98.5,154.5C 97.9401,161.121 98.6068,167.455 100.5,173.5C 98.1667,173.5 95.8333,173.5 93.5,173.5C 93.5,166.833 93.5,160.167 93.5,153.5 Z"/></g>
<g><path style="opacity:1" fill="#2d3535" d="M 91.5,185.5 C 91.5,189.167 91.5,192.833 91.5,196.5C 87.8325,197.279 83.9991,197.279 80,196.5C 76.271,198.79 72.6044,198.79 69,196.5C 67.2785,196.611 67.1118,197.111 68.5,198C 62.3629,199.15 56.3629,199.65 50.5,199.5C 47.9639,199.156 45.7972,198.156 44,196.5C 43.6667,196.833 43.3333,197.167 43,197.5C 39.6997,196.295 37.1997,194.295 35.5,191.5C 34.8126,186.067 35.9793,185.401 39,189.5C 46.6297,189.598 54.463,189.431 62.5,189C 68.1176,187.193 73.1176,184.36 77.5,180.5C 78.1667,180.833 78.8333,181.167 79.5,181.5C 82.3232,180.621 85.1566,179.621 88,178.5C 88.772,178.645 89.4387,178.978 90,179.5C 90.1909,181.708 90.6909,183.708 91.5,185.5 Z"/></g>
<g><path style="opacity:1" fill="#0f202c" d="M 208.5,143.5 C 208.5,153.5 208.5,163.5 208.5,173.5C 208.035,177.062 206.868,180.395 205,183.5C 191.268,197.734 177.102,211.4 162.5,224.5C 163.792,207.451 163.792,190.451 162.5,173.5C 163.167,173.5 163.833,173.5 164.5,173.5C 164.5,175.5 164.5,177.5 164.5,179.5C 164.334,188.506 164.5,197.506 165,206.5C 165.085,202.529 166.085,198.862 168,195.5C 170.224,197.054 172.724,198.054 175.5,198.5C 182.477,194.504 189.811,190.337 197.5,186C 203.609,180.179 206.276,173.012 205.5,164.5C 205.801,158.489 206.301,152.489 207,146.5C 207.232,145.263 207.732,144.263 208.5,143.5 Z"/></g>
<g><path style="opacity:0.979" fill="#323737" d="M 239.5,178.5 C 239.5,184.833 239.5,191.167 239.5,197.5C 236.189,195.461 232.856,195.795 229.5,198.5C 227.546,197.149 225.379,196.482 223,196.5C 215.695,198.736 208.195,199.902 200.5,200C 198.697,200.637 197.364,201.803 196.5,203.5C 195.325,202.145 194.325,202.312 193.5,204C 193.833,204.333 194.167,204.667 194.5,205C 192.963,206.11 192.297,207.61 192.5,209.5C 188.643,210.686 185.643,213.02 183.5,216.5C 177.463,222.043 171.13,227.376 164.5,232.5C 167.565,227.039 171.565,222.372 176.5,218.5C 179.833,214.5 183.5,210.833 187.5,207.5C 196.243,200.093 203.91,191.76 210.5,182.5C 212.416,182.908 214.249,182.241 216,180.5C 220.784,180.209 225.618,180.875 230.5,182.5C 233.14,181.905 235.807,181.572 238.5,181.5C 238.263,180.209 238.596,179.209 239.5,178.5 Z"/></g>
<g><path style="opacity:0.075" fill="#2b2822" d="M 93.5,116.5 C 93.5,123.5 93.5,130.5 93.5,137.5C 93.5,142.833 93.5,148.167 93.5,153.5C 93.5,160.167 93.5,166.833 93.5,173.5C 95.8333,173.5 98.1667,173.5 100.5,173.5C 103.167,173.5 105.833,173.5 108.5,173.5C 109.833,173.5 111.167,173.5 112.5,173.5C 106.355,174.49 100.022,174.823 93.5,174.5C 93.5,181.833 93.5,189.167 93.5,196.5C 92.5051,185.012 92.1717,173.345 92.5,161.5C 92.5,149.167 92.5,136.833 92.5,124.5C 92.1936,121.615 92.5269,118.948 93.5,116.5 Z"/></g>
<g><path style="opacity:1" fill="#29353a" d="M 35.5,191.5 C 37.1997,194.295 39.6997,196.295 43,197.5C 43.3333,197.167 43.6667,196.833 44,196.5C 45.7972,198.156 47.9639,199.156 50.5,199.5C 56.3629,199.65 62.3629,199.15 68.5,198C 67.1118,197.111 67.2785,196.611 69,196.5C 72.6044,198.79 76.271,198.79 80,196.5C 83.9991,197.279 87.8325,197.279 91.5,196.5C 91.1201,198.698 91.7868,200.365 93.5,201.5C 93.5,206.833 93.5,212.167 93.5,217.5C 92.8333,216.167 92.1667,214.833 91.5,213.5C 91.6641,210.813 91.4974,208.146 91,205.5C 90.4387,204.978 89.772,204.645 89,204.5C 87.1444,205.736 85.3111,205.736 83.5,204.5C 82.7492,205.376 82.2492,206.376 82,207.5C 77.4249,205.513 72.7582,204.846 68,205.5C 67.0723,207.335 65.9056,207.668 64.5,206.5C 58.0213,209.008 51.5213,210.341 45,210.5C 44.6827,212.301 44.016,212.634 43,211.5C 40.6566,212.127 38.4899,213.127 36.5,214.5C 35.8182,213.757 35.1515,213.091 34.5,212.5C 34.5,211.5 34.5,210.5 34.5,209.5C 35.1646,203.523 35.498,197.523 35.5,191.5 Z"/></g>
<g><path style="opacity:1" fill="#7a5535" d="M 210.5,180.5 C 210.5,181.167 210.5,181.833 210.5,182.5C 203.91,191.76 196.243,200.093 187.5,207.5C 195.548,198.788 203.215,189.788 210.5,180.5 Z"/></g>
<g><path style="opacity:1" fill="#28383f" d="M 239.5,197.5 C 239.5,202.167 239.5,206.833 239.5,211.5C 238.698,210.048 238.198,208.382 238,206.5C 233.272,206.622 228.272,206.622 223,206.5C 218.308,207.913 213.474,208.746 208.5,209C 205.493,210.617 202.659,212.451 200,214.5C 199.333,213.833 198.667,213.167 198,212.5C 194.715,212.979 191.881,214.312 189.5,216.5C 188.005,215.295 186.672,215.295 185.5,216.5C 184.833,216.5 184.167,216.5 183.5,216.5C 185.643,213.02 188.643,210.686 192.5,209.5C 192.297,207.61 192.963,206.11 194.5,205C 194.167,204.667 193.833,204.333 193.5,204C 194.325,202.312 195.325,202.145 196.5,203.5C 197.364,201.803 198.697,200.637 200.5,200C 208.195,199.902 215.695,198.736 223,196.5C 225.379,196.482 227.546,197.149 229.5,198.5C 232.856,195.795 236.189,195.461 239.5,197.5 Z"/></g>
<g><path style="opacity:1" fill="#c5955f" d="M 209.5,170.5 C 210.649,170.791 211.316,171.624 211.5,173C 210.841,175.462 210.507,177.962 210.5,180.5C 203.215,189.788 195.548,198.788 187.5,207.5C 183.5,210.833 179.833,214.5 176.5,218.5C 169.494,222.693 163.161,227.859 157.5,234C 155.934,234.765 154.601,234.598 153.5,233.5C 156.833,230.833 159.833,227.833 162.5,224.5C 177.102,211.4 191.268,197.734 205,183.5C 206.868,180.395 208.035,177.062 208.5,173.5C 209.404,172.791 209.737,171.791 209.5,170.5 Z"/></g>
<g><path style="opacity:1" fill="#263b45" d="M 91.5,213.5 C 91.6602,215.199 91.4935,216.866 91,218.5C 89.3333,218.5 87.6667,218.5 86,218.5C 85,217.833 84,217.167 83,216.5C 68.0579,218.308 53.2246,220.974 38.5,224.5C 35.4828,224.274 32.8162,223.274 30.5,221.5C 32.0909,218.648 33.4242,215.648 34.5,212.5C 35.1515,213.091 35.8182,213.757 36.5,214.5C 38.4899,213.127 40.6566,212.127 43,211.5C 44.016,212.634 44.6827,212.301 45,210.5C 51.5213,210.341 58.0213,209.008 64.5,206.5C 65.9056,207.668 67.0723,207.335 68,205.5C 72.7582,204.846 77.4249,205.513 82,207.5C 82.2492,206.376 82.7492,205.376 83.5,204.5C 85.3111,205.736 87.1444,205.736 89,204.5C 89.772,204.645 90.4387,204.978 91,205.5C 91.4974,208.146 91.6641,210.813 91.5,213.5 Z"/></g>
<g><path style="opacity:1" fill="#25404b" d="M 239.5,211.5 C 239.5,215.833 239.5,220.167 239.5,224.5C 238.549,223.081 238.216,221.415 238.5,219.5C 235.334,219.234 232.167,218.901 229,218.5C 218.673,219.999 208.34,221.332 198,222.5C 192.789,223.279 188.289,221.946 184.5,218.5C 184.863,217.817 185.196,217.15 185.5,216.5C 186.672,215.295 188.005,215.295 189.5,216.5C 191.881,214.312 194.715,212.979 198,212.5C 198.667,213.167 199.333,213.833 200,214.5C 202.659,212.451 205.493,210.617 208.5,209C 213.474,208.746 218.308,207.913 223,206.5C 228.272,206.622 233.272,206.622 238,206.5C 238.198,208.382 238.698,210.048 239.5,211.5 Z"/></g>
<g><path style="opacity:0.659" fill="#504f48" d="M 33.5,209.5 C 33.8333,209.5 34.1667,209.5 34.5,209.5C 34.5,210.5 34.5,211.5 34.5,212.5C 33.4242,215.648 32.0909,218.648 30.5,221.5C 27.8157,223.729 24.8157,225.395 21.5,226.5C 24.1288,223.369 26.9621,220.369 30,217.5C 31.8448,215.133 33.0114,212.467 33.5,209.5 Z"/></g>
<g><path style="opacity:1" fill="#263d48" d="M 91.5,213.5 C 92.1667,214.833 92.8333,216.167 93.5,217.5C 93.8097,223.758 93.4764,229.924 92.5,236C 65.5029,235.757 38.5029,235.591 11.5,235.5C 14.2311,231.766 17.5644,228.766 21.5,226.5C 24.8157,225.395 27.8157,223.729 30.5,221.5C 32.8162,223.274 35.4828,224.274 38.5,224.5C 53.2246,220.974 68.0579,218.308 83,216.5C 84,217.167 85,217.833 86,218.5C 87.6667,218.5 89.3333,218.5 91,218.5C 91.4935,216.866 91.6602,215.199 91.5,213.5 Z"/></g>
<g><path style="opacity:0.996" fill="#264655" d="M 91.5,222.5 C 92.4834,226.298 92.8168,230.298 92.5,234.5C 74.8302,234.667 57.1635,234.5 39.5,234C 43.263,234.113 46.4296,232.947 49,230.5C 49.414,230.957 49.914,231.291 50.5,231.5C 54.1021,228.867 58.1021,227.033 62.5,226C 70.3873,225.165 78.2206,224.332 86,223.5C 88.1176,224.739 89.951,224.405 91.5,222.5 Z"/></g>
<g><path style="opacity:1" fill="#274956" d="M 183.5,216.5 C 184.167,216.5 184.833,216.5 185.5,216.5C 185.196,217.15 184.863,217.817 184.5,218.5C 188.289,221.946 192.789,223.279 198,222.5C 208.34,221.332 218.673,219.999 229,218.5C 232.167,218.901 235.334,219.234 238.5,219.5C 238.216,221.415 238.549,223.081 239.5,224.5C 239.423,228.215 239.756,231.881 240.5,235.5C 214.161,235.458 187.827,235.791 161.5,236.5C 161.738,234.596 162.738,233.262 164.5,232.5C 171.13,227.376 177.463,222.043 183.5,216.5 Z"/></g>
<g><path style="opacity:1" fill="#915f38" d="M 176.5,218.5 C 171.565,222.372 167.565,227.039 164.5,232.5C 162.738,233.262 161.738,234.596 161.5,236.5C 158.5,236.5 155.5,236.5 152.5,236.5C 152.263,235.209 152.596,234.209 153.5,233.5C 154.601,234.598 155.934,234.765 157.5,234C 163.161,227.859 169.494,222.693 176.5,218.5 Z"/></g>
</svg>
