<svg width="256" height="248" xmlns="http://www.w3.org/2000/svg" xmlns:svg="http://www.w3.org/2000/svg" clip-rule="evenodd" fill-rule="evenodd" version="1.1">
 <g class="layer">
  <title>Layer 1</title>
  <g id="svg_1">
   <path d="m70.5,8.5c0,0.33 0,0.67 0,1c-20.36,-0.65 -40.36,0.01 -60,2c-0.98,-0.31 -1.64,-0.98 -2,-2c20.66,-1 41.32,-1.33 62,-1z" fill="#a99f7e" id="svg_2" opacity="0.19"/>
  </g>
  <g id="svg_3">
   <path d="m214.5,8.5c8,0 16,0 24,0c0,0.67 0,1.33 0,2c-0.33,0 -0.67,0 -1,0c-7.67,0 -15.33,0 -23,0c0,4.67 0,9.33 0,14c0,3.33 0,6.67 0,10c0,5 0,10 0,15c0,0.33 0,0.67 0,1c-0.33,0 -0.67,0 -1,0c0,-0.33 0,-0.67 0,-1c0,-5.33 0,-10.67 0,-16c0,-2.67 0,-5.33 0,-8c0,-5.33 0,-10.67 0,-16c0.67,0 1,-0.33 1,-1z" fill="#5e9da3" id="svg_4" opacity="0.94"/>
  </g>
  <g id="svg_5">
   <path d="m214.5,8.5c0,0.67 -0.33,1 -1,1c-9.67,-0.17 -19.34,0 -29,0.5c3.33,0.33 6.67,0.67 10,1c-5.61,0.3 -10.95,1.63 -16,4c0.52,0.69 1.19,1.19 2,1.5c2.34,-1.22 4.67,-1.22 7,0c-4.3,1.6 -8.63,3.1 -13,4.5c2.83,0.21 5.5,0.38 8,0.5c-4.38,1.02 -8.38,2.86 -12,5.5c0.67,0.33 1.33,0.67 2,1c-1.59,0.95 -2.93,2.12 -4,3.5c-1.93,0.27 -3.26,1.27 -4,3c0,-3.67 0,-7.33 0,-11c1.67,-7.17 6,-12.01 13,-14.5c12.33,-0.5 24.66,-0.67 37,-0.5z" fill="#b3d0c8" id="svg_6"/>
  </g>
  <g id="svg_7">
   <path d="m70.5,9.5c0.33,0 0.67,0 1,0c0,3.67 0,7.33 0,11c-0.76,0.89 -1.76,1.56 -3,2c-3.41,-0.96 -6.58,-0.96 -9.5,0c-1.32,-1.38 -2.66,-1.71 -4,-1c-10.66,-1.61 -21.33,-3.28 -32,-5c-1.07,0.69 -2.23,1.19 -3.5,1.5c0.95,0.72 1.12,1.55 0.5,2.5c-1.33,-1.08 -2.83,-1.75 -4.5,-2c-2.05,-2.05 -3.72,-4.39 -5,-7c19.64,-1.99 39.64,-2.65 60,-2z" fill="#fcf5c4" id="svg_8"/>
  </g>
  <g id="svg_9">
   <path d="m71.5,9.5c7,0 14,0 21,0c0,2 0,4 0,6c-1.37,-0.16 -2.71,0.01 -4,0.5c-4.53,3.86 -9.36,7.36 -14.5,10.5c-1.4,5.54 -1.9,11.21 -1.5,17c0.17,0.99 -0.16,1.66 -1,2c0,-1.67 0,-3.33 0,-5c0,-6.67 0,-13.33 0,-20c0,-3.67 0,-7.33 0,-11z" fill="#bbd6c0" id="svg_10"/>
  </g>
  <g id="svg_11">
   <path d="m237.5,10.5c0.16,2.69 0,5.35 -0.5,8c-0.31,-0.81 -0.81,-1.47 -1.5,-2c-6.44,3.54 -12.6,7.54 -18.5,12c-0.93,-1.36 -1.77,-2.69 -2.5,-4c0,-4.67 0,-9.33 0,-14c7.67,0 15.33,0 23,0z" fill="#338890" id="svg_12"/>
  </g>
  <g id="svg_13">
   <path d="m70.5,9.5c0,-0.33 0,-0.67 0,-1c7.67,0 15.33,0 23,0c0,3 0,6 0,9c-0.83,5.15 -1.33,10.48 -1.5,16c-0.49,-3.48 -1.99,-3.98 -4.5,-1.5c-4.3,3.3 -8.3,6.96 -12,11c-0.95,0.48 -1.95,0.65 -3,0.5c-0.4,-5.79 0.1,-11.46 1.5,-17c5.14,-3.14 9.97,-6.64 14.5,-10.5c1.29,-0.49 2.63,-0.66 4,-0.5c0,-2 0,-4 0,-6c-7,0 -14,0 -21,0c-0.33,0 -0.67,0 -1,0z" fill="#abc9b2" id="svg_14"/>
  </g>
  <g id="svg_15">
   <path d="m237.5,10.5c0.33,0 0.67,0 1,0c0,4 0,8 0,12c-0.8,1.45 -1.3,3.12 -1.5,5c-0.33,-0.33 -0.67,-0.67 -1,-1c-2.83,2.17 -5.67,4.33 -8.5,6.5c-4.4,0.71 -8.4,2.21 -12,4.5c0.24,-1.29 -0.1,-2.29 -1,-3c0,-3.33 0,-6.67 0,-10c0.73,1.31 1.57,2.64 2.5,4c5.9,-4.46 12.06,-8.46 18.5,-12c0.69,0.53 1.19,1.19 1.5,2c0.5,-2.65 0.66,-5.31 0.5,-8z" fill="#2d7b85" id="svg_16"/>
  </g>
  <g id="svg_17">
   <path d="m213.5,9.5c0,5.33 0,10.67 0,16c-0.92,-0.48 -1.92,-0.82 -3,-1c-6.52,1.66 -13.18,2.49 -20,2.5c-2.12,0.81 -4.12,1.81 -6,3c-4.53,-0.66 -8.7,0.51 -12.5,3.5c-1.3,-0.58 -2.47,-1.25 -3.5,-2c1.07,-1.38 2.41,-2.55 4,-3.5c-0.67,-0.33 -1.33,-0.67 -2,-1c3.62,-2.64 7.62,-4.48 12,-5.5c-2.5,-0.12 -5.17,-0.29 -8,-0.5c4.37,-1.4 8.7,-2.9 13,-4.5c-2.33,-1.22 -4.66,-1.22 -7,0c-0.81,-0.31 -1.48,-0.81 -2,-1.5c5.05,-2.37 10.39,-3.7 16,-4c-3.33,-0.33 -6.67,-0.67 -10,-1c9.66,-0.5 19.33,-0.67 29,-0.5z" fill="#a3ccc2" id="svg_18"/>
  </g>
  <g id="svg_19">
   <path d="m71.5,20.5c0,6.67 0,13.33 0,20c-2.04,-3.01 -4.7,-3.68 -8,-2c-9.64,-1.05 -19.14,-2.38 -28.5,-4c-1.23,0.14 -2.39,0.48 -3.5,1c-0.84,-2.44 -2.5,-3.77 -5,-4c-3.42,-4.48 -7.09,-8.81 -11,-13c1.67,0.25 3.17,0.92 4.5,2c0.62,-0.95 0.45,-1.78 -0.5,-2.5c1.27,-0.31 2.43,-0.81 3.5,-1.5c10.67,1.72 21.34,3.39 32,5c1.34,-0.71 2.68,-0.38 4,1c2.92,-0.96 6.09,-0.96 9.5,0c1.24,-0.44 2.24,-1.11 3,-2z" fill="#fcecbb" id="svg_20"/>
  </g>
  <g id="svg_21">
   <path d="m238.5,22.5c0,9 0,18 0,27c-8,0 -16,0 -24,0c0,-5 0,-10 0,-15c0.9,0.71 1.24,1.71 1,3c3.6,-2.29 7.6,-3.79 12,-4.5c2.83,-2.17 5.67,-4.33 8.5,-6.5c0.33,0.33 0.67,0.67 1,1c0.2,-1.88 0.7,-3.55 1.5,-5z" fill="#266975" id="svg_22" opacity="0.99"/>
  </g>
  <g id="svg_23">
   <path d="m213.5,25.5c0,2.67 0,5.33 0,8c-0.76,-0.42 -1.6,-0.76 -2.5,-1c-11.9,4.78 -24.23,8.12 -37,10c-7.15,-0.18 -7.32,-1.34 -0.5,-3.5c-2.73,-0.73 -5.4,-0.56 -8,0.5c-0.95,-1.55 -1.29,-3.21 -1,-5c0.74,-1.73 2.07,-2.73 4,-3c1.03,0.75 2.2,1.42 3.5,2c3.8,-2.99 7.97,-4.16 12.5,-3.5c1.88,-1.19 3.88,-2.19 6,-3c6.82,-0.01 13.48,-0.84 20,-2.5c1.08,0.18 2.08,0.52 3,1z" fill="#90bfb6" id="svg_24"/>
  </g>
  <g id="svg_25">
   <path d="m93.5,17.5c0,10.33 0,20.67 0,31c0,12.33 0,24.67 0,37c-0.99,-5.14 -1.32,-10.47 -1,-16c0.46,-7.51 -0.04,-14.84 -1.5,-22c-3.08,5.3 -7.58,8.8 -13.5,10.5c-1.52,1.35 -2.85,2.85 -4,4.5c-0.68,-0.36 -1.35,-0.7 -2,-1c0,-5.33 0,-10.67 0,-16c0.84,-0.34 1.17,-1.01 1,-2c1.05,0.15 2.05,-0.02 3,-0.5c3.7,-4.04 7.7,-7.7 12,-11c2.51,-2.48 4.01,-1.98 4.5,1.5c0.17,-5.52 0.67,-10.85 1.5,-16z" fill="#99b9a1" id="svg_26"/>
  </g>
  <g id="svg_27">
   <path d="m164.5,23.5c0,3.67 0,7.33 0,11c-0.29,1.79 0.05,3.45 1,5c2.6,-1.06 5.27,-1.23 8,-0.5c-6.82,2.16 -6.65,3.32 0.5,3.5c12.77,-1.88 25.1,-5.22 37,-10c0.9,0.24 1.74,0.58 2.5,1c0,5.33 0,10.67 0,16c-2.2,-0.09 -4.36,-0.42 -6.5,-1c-11.53,2.04 -23.03,4.04 -34.5,6c-2.67,-1 -5.33,-2 -8,-3c0.24,-1.29 -0.1,-2.29 -1,-3c-0.33,-8.52 0.01,-16.85 1,-25z" fill="#7db3ac" id="svg_28"/>
  </g>
  <g id="svg_29">
   <path d="m213.5,49.5c0,0.33 0,0.67 0,1c-1.6,-0.27 -2.93,0.07 -4,1c-0.67,0 -1,0.33 -1,1c-3.08,1.57 -5.75,3.74 -8,6.5c-6.51,1.93 -13.17,3.1 -20,3.5c-2.77,-0.53 -5.44,-1.36 -8,-2.5c2.12,-0.26 3.78,-1.26 5,-3c-2.15,-0.1 -3.82,-0.93 -5,-2.5c11.47,-1.96 22.97,-3.96 34.5,-6c2.14,0.58 4.3,0.91 6.5,1z" fill="#6fa9a3" id="svg_30"/>
  </g>
  <g id="svg_31">
   <path d="m238.5,8.5c1,13.82 1.33,27.82 1,42c-8.33,0 -16.67,0 -25,0c0,-0.33 0,-0.67 0,-1c8,0 16,0 24,0c0,-9 0,-18 0,-27c0,-4 0,-8 0,-12c0,-0.67 0,-1.33 0,-2z" fill="#244450" id="svg_32"/>
  </g>
  <g id="svg_33">
   <path d="m26.5,31.5c2.5,0.23 4.16,1.56 5,4c1.11,-0.52 2.27,-0.86 3.5,-1c9.36,1.62 18.86,2.95 28.5,4c3.3,-1.68 5.96,-1.01 8,2c0,1.67 0,3.33 0,5c0,5.33 0,10.67 0,16c0,1 0,2 0,3c-3.54,-2.24 -7.38,-2.58 -11.5,-1c-4.82,-0.62 -9.65,-1.12 -14.5,-1.5c-3.01,-0.33 -5.84,-1.17 -8.5,-2.5c-0.85,1.07 -1.69,2.07 -2.5,3c0.32,-7.19 -0.01,-14.19 -1,-21c-2.32,-3.3 -4.65,-6.63 -7,-10z" fill="#f4dca8" id="svg_34"/>
  </g>
  <g id="svg_35">
   <path d="m164.5,51.5c2.67,1 5.33,2 8,3c1.18,1.57 2.85,2.4 5,2.5c-1.22,1.74 -2.88,2.74 -5,3c2.56,1.14 5.23,1.97 8,2.5c6.83,-0.4 13.49,-1.57 20,-3.5c2.25,-2.76 4.92,-4.93 8,-6.5c0.24,3.11 -0.1,6.11 -1,9c-0.33,0 -0.67,0 -1,0c-0.67,0 -1,0.33 -1,1c-0.33,0 -0.67,0 -1,0c-8.43,5.1 -17.1,9.76 -26,14c-1.66,-0.68 -3.32,-1.51 -5,-2.5c1.75,-0.47 3.41,-1.14 5,-2c-5.24,-1.78 -9.91,-4.28 -14,-7.5c0,-4.33 0,-8.67 0,-13z" fill="#649c98" id="svg_36"/>
  </g>
  <g id="svg_37">
   <path d="m93.5,48.5c1.67,0 3.33,0 5,0c0,0.33 0,0.67 0,1c-0.33,0 -0.67,0 -1,0c-1.29,1.37 -1.95,3.2 -2,5.5c0.55,10.57 1.21,21.07 2,31.5c-1.33,0 -2.67,0 -4,0c0,-0.33 0,-0.67 0,-1c0,-12.33 0,-24.67 0,-37z" fill="#3fafb6" id="svg_38"/>
  </g>
  <g id="svg_39">
   <path d="m210.5,51.5c9.67,0 19.33,0 29,0c0,5 0,10 0,15c-5.4,2.43 -11.07,4.1 -17,5c-3.08,-0.71 -6.08,-1.71 -9,-3c-0.8,1.58 -1.3,3.24 -1.5,5c-0.94,-7.31 -1.44,-14.64 -1.5,-22z" fill="#f7e0aa" id="svg_40"/>
  </g>
  <g id="svg_41">
   <path d="m97.5,49.5c1.94,12.22 3.27,24.56 4,37c-1.33,0 -2.67,0 -4,0c-0.79,-10.43 -1.45,-20.93 -2,-31.5c0.05,-2.3 0.71,-4.13 2,-5.5z" fill="#3cccd1" id="svg_42"/>
  </g>
  <g id="svg_43">
   <path d="m97.5,49.5c0.33,0 0.67,0 1,0c18.67,-0.17 37.34,0 56,0.5c-2.78,0.15 -3.28,0.98 -1.5,2.5c0.67,1.67 0.67,3.33 0,5c-2.17,6.52 -4.34,13.02 -6.5,19.5c0.35,2.05 -0.32,4.05 -2,6c2.12,1.19 4.46,1.86 7,2c-8.33,0.5 -16.66,0.67 -25,0.5c-2.47,-0.82 -5.14,-1.32 -8,-1.5c2.67,-0.33 5.33,-0.67 8,-1c-4.55,-0.81 -4.88,-2.14 -1,-4c-1.59,-0.86 -3.25,-1.53 -5,-2c2.36,-1.36 4.03,-3.36 5,-6c-0.33,-0.33 -0.67,-0.67 -1,-1c3.72,-3.42 6.39,-7.59 8,-12.5c-0.63,-1.76 -1.63,-3.26 -3,-4.5c-6,-0.67 -12,-0.67 -18,0c-4.37,-0.15 -5.7,1.68 -4,5.5c-1.91,4.82 -2.91,9.82 -3,15c-0.18,3.53 0.49,6.87 2,10c-0.21,0.59 -0.54,1.09 -1,1.5c1.97,0.5 3.97,0.66 6,0.5c0,0.33 0,0.67 0,1c-3.33,0 -6.67,0 -10,0c-0.73,-12.44 -2.06,-24.78 -4,-37z" fill="#23edf6" id="svg_44"/>
  </g>
  <g id="svg_45">
   <path d="m126.5,85.5c-5,0 -10,0 -15,0c-2.03,0.16 -4.03,0 -6,-0.5c0.46,-0.41 0.79,-0.91 1,-1.5c-1.51,-3.13 -2.18,-6.47 -2,-10c0.09,-5.18 1.09,-10.18 3,-15c-1.7,-3.82 -0.37,-5.65 4,-5.5c6,-0.67 12,-0.67 18,0c1.37,1.24 2.37,2.74 3,4.5c-1.61,4.91 -4.28,9.08 -8,12.5c0.33,0.33 0.67,0.67 1,1c-0.97,2.64 -2.64,4.64 -5,6c1.75,0.47 3.41,1.14 5,2c-3.88,1.86 -3.55,3.19 1,4c-2.67,0.33 -5.33,0.67 -8,1c2.86,0.18 5.53,0.68 8,1.5z" fill="#1df4fb" id="svg_46"/>
  </g>
  <g id="svg_47">
   <path d="m71.5,64.5c0,4.33 0,8.67 0,13c-1.52,-0.01 -2.68,-0.68 -3.5,-2c-2.52,1.13 -5.19,1.8 -8,2c-8.13,0.18 -16.3,-0.15 -24.5,-1c-1.06,-2.58 -1.4,-7.25 -1,-14c0.81,-0.93 1.65,-1.93 2.5,-3c2.66,1.33 5.49,2.17 8.5,2.5c4.85,0.38 9.68,0.88 14.5,1.5c4.12,-1.58 7.96,-1.24 11.5,1z" fill="#e6ca93" id="svg_48"/>
  </g>
  <g id="svg_49">
   <path d="m209.5,51.5c1.07,-0.93 2.4,-1.27 4,-1c0.33,0 0.67,0 1,0c8.33,0 16.67,0 25,0c1,15.16 1.33,30.49 1,46c-0.33,0 -0.67,0 -1,0c0,-4.33 0,-8.67 0,-13c0,-5.67 0,-11.33 0,-17c0,-5 0,-10 0,-15c-9.67,0 -19.33,0 -29,0c-0.33,0 -0.67,0 -1,0z" fill="#9f8f6a" id="svg_50" opacity="0.13"/>
  </g>
  <g id="svg_51">
   <path d="m92.5,69.5c-0.72,-0.42 -1.22,-1.08 -1.5,-2c-4.09,5.24 -9.25,9.24 -15.5,12c-1.36,-1.31 -2.7,-1.31 -4,0c0,-0.67 0,-1.33 0,-2c0,-4.33 0,-8.67 0,-13c0,-1 0,-2 0,-3c0.65,0.3 1.32,0.64 2,1c1.15,-1.65 2.48,-3.15 4,-4.5c5.92,-1.7 10.42,-5.2 13.5,-10.5c1.46,7.16 1.96,14.49 1.5,22z" fill="#8ea489" id="svg_52"/>
  </g>
  <g id="svg_53">
   <path d="m164.5,64.5c4.09,3.22 8.76,5.72 14,7.5c-1.59,0.86 -3.25,1.53 -5,2c1.68,0.99 3.34,1.82 5,2.5c-3.17,1.75 -6.17,3.75 -9,6c-1.55,0.94 -3.22,1.61 -5,2c0,-6.67 0,-13.33 0,-20z" fill="#5c8d8a" id="svg_54"/>
  </g>
  <g id="svg_55">
   <path d="m160.5,49.5c1,0 2,0 3,0c0.23,12.36 -0.1,24.69 -1,37c-2.67,0 -5.33,0 -8,0c0.76,-0.77 1.76,-1.27 3,-1.5c-1.17,-0.42 -2.17,-1.09 -3,-2c3.34,-10.9 5.34,-22.06 6,-33.5z" fill="#1db5c2" id="svg_56"/>
  </g>
  <g id="svg_57">
   <path d="m209.5,51.5c0.33,0 0.67,0 1,0c0.06,7.36 0.56,14.69 1.5,22c0.2,-1.76 0.7,-3.42 1.5,-5c2.92,1.29 5.92,2.29 9,3c5.93,-0.9 11.6,-2.57 17,-5c0,5.67 0,11.33 0,17c-0.9,0.71 -1.24,1.71 -1,3c-7.17,-0.51 -14.01,0.49 -20.5,3c-0.33,-0.33 -0.67,-0.67 -1,-1c-2,0.5 -3.66,1.5 -5,3c-0.73,-8.5 -1.56,-16.83 -2.5,-25c0,-5 0,-10 0,-15z" fill="#ebcf96" id="svg_58"/>
  </g>
  <g id="svg_59">
   <path d="m98.5,49.5c0,-0.33 0,-0.67 0,-1c20.67,0 41.33,0 62,0c0,0.33 0,0.67 0,1c-0.66,11.44 -2.66,22.6 -6,33.5c0.83,0.91 1.83,1.58 3,2c-1.24,0.23 -2.24,0.73 -3,1.5c-14.33,0 -28.67,0 -43,0c0,-0.33 0,-0.67 0,-1c5,0 10,0 15,0c8.34,0.17 16.67,0 25,-0.5c-2.54,-0.14 -4.88,-0.81 -7,-2c1.68,-1.95 2.35,-3.95 2,-6c2.16,-6.48 4.33,-12.98 6.5,-19.5c0.67,-1.67 0.67,-3.33 0,-5c-1.78,-1.52 -1.28,-2.35 1.5,-2.5c-18.66,-0.5 -37.33,-0.67 -56,-0.5z" fill="#29d6e2" id="svg_60"/>
  </g>
  <g id="svg_61">
   <path d="m160.5,49.5c0,-0.33 0,-0.67 0,-1c1,0 2,0 3,0c0.9,0.71 1.24,1.71 1,3c0,4.33 0,8.67 0,13c0,6.67 0,13.33 0,20c-0.33,0.67 -0.67,1.33 -1,2c-0.33,0 -0.67,0 -1,0c0.9,-12.31 1.23,-24.64 1,-37c-1,0 -2,0 -3,0z" fill="#2e939e" id="svg_62"/>
  </g>
  <g id="svg_63">
   <path d="m204.5,62.5c0.22,5.82 -0.61,11.49 -2.5,17c-1.73,2.98 -3.9,4.98 -6.5,6c-1.75,0.9 -3.58,1.56 -5.5,2c-3.79,-0.73 -7.63,-1.23 -11.5,-1.5c-2.98,-1.27 -5.98,-2.44 -9,-3.5c2.83,-2.25 5.83,-4.25 9,-6c8.9,-4.24 17.57,-8.9 26,-14z" fill="#317b83" id="svg_64"/>
  </g>
  <g id="svg_65">
   <path d="m204.5,62.5c0.33,0 0.67,0 1,0c-0.22,7.68 -0.72,15.35 -1.5,23c-0.42,6.71 -3.92,10.87 -10.5,12.5c-3.06,0.26 -6.06,0.76 -9,1.5c-2.79,-1.54 -5.29,-1.21 -7.5,1c-4.61,-1.94 -7.94,-5.28 -10,-10c-0.67,1.33 -1.33,1.33 -2,0c-0.21,-1.56 -0.71,-2.89 -1.5,-4c0.33,-0.67 0.67,-1.33 1,-2c1.78,-0.39 3.45,-1.06 5,-2c3.02,1.06 6.02,2.23 9,3.5c3.87,0.27 7.71,0.77 11.5,1.5c1.92,-0.44 3.75,-1.1 5.5,-2c2.6,-1.02 4.77,-3.02 6.5,-6c1.89,-5.51 2.72,-11.18 2.5,-17z" fill="#2b717a" id="svg_66"/>
  </g>
  <g id="svg_67">
   <path d="m33.5,41.5c0.99,6.81 1.32,13.81 1,21c-0.4,6.75 -0.06,11.42 1,14c8.2,0.85 16.37,1.18 24.5,1c2.81,-0.2 5.48,-0.87 8,-2c0.82,1.32 1.98,1.99 3.5,2c0,0.67 0,1.33 0,2c0,3.67 0,7.33 0,11c-4.51,2.18 -9.34,3.51 -14.5,4c-3.58,-0.65 -7.25,-0.98 -11,-1c-4.09,0.08 -7.92,0.74 -11.5,2c0.32,-4.53 -0.02,-8.87 -1,-13c0,-13.67 0,-27.33 0,-41z" fill="#d2b37b" id="svg_68"/>
  </g>
  <g id="svg_69">
   <path d="m92.5,69.5c-0.32,5.53 0.01,10.86 1,16c0,0.33 0,0.67 0,1c0,1.33 0,2.67 0,4c-0.67,2.33 -1.33,4.67 -2,7c0.33,-4.38 -0.01,-8.72 -1,-13c-4.33,5.16 -9.67,8.83 -16,11c-0.59,-0.21 -1.09,-0.54 -1.5,-1c-0.49,1.63 -0.66,3.3 -0.5,5c-0.33,0 -0.67,0 -1,0c0,-3 0,-6 0,-9c0,-3.67 0,-7.33 0,-11c1.3,-1.31 2.64,-1.31 4,0c6.25,-2.76 11.41,-6.76 15.5,-12c0.28,0.92 0.78,1.58 1.5,2z" fill="#839178" id="svg_70"/>
  </g>
  <g id="svg_71">
   <path d="m209.5,66.5c0.94,8.17 1.77,16.5 2.5,25c1.34,-1.5 3,-2.5 5,-3c0.33,0.33 0.67,0.67 1,1c6.49,-2.51 13.33,-3.51 20.5,-3c-0.24,-1.29 0.1,-2.29 1,-3c0,4.33 0,8.67 0,13c0,0.33 0,0.67 0,1c-1.55,-0.32 -2.21,-1.32 -2,-3c-8.31,0.74 -16.65,1.07 -25,1c0,3.33 0,6.67 0,10c0,2 0,4 0,6c-1.48,-7.61 -2.48,-15.27 -3,-23c0,-7.33 0,-14.67 0,-22z" fill="#dcbb7e" id="svg_72"/>
  </g>
  <g id="svg_73">
   <path d="m91.5,97.5c0.31,2.75 -0.02,5.41 -1,8c-0.98,-0.48 -1.81,-1.14 -2.5,-2c-1.69,1.53 -3.53,2.86 -5.5,4c-3.47,0.32 -6.63,1.32 -9.5,3c-0.5,-3.65 -0.67,-7.32 -0.5,-11c-0.16,-1.7 0.01,-3.37 0.5,-5c0.41,0.46 0.91,0.79 1.5,1c6.33,-2.17 11.67,-5.84 16,-11c0.99,4.28 1.33,8.62 1,13z" fill="#79806a" id="svg_74"/>
  </g>
  <g id="svg_75">
   <path d="m206.5,61.5c0.68,18.2 -0.82,36.2 -4.5,54c-3.98,3.34 -8.65,5 -14,5c-5.21,-0.84 -10.38,-1.84 -15.5,-3c-2.66,1.61 -4.49,0.95 -5.5,-2c-1.46,6.15 -1.96,12.49 -1.5,19c-0.06,1.11 -0.39,2.11 -1,3c-0.33,0 -0.67,0 -1,0c-0.67,0 -1.33,0 -2,0c0.29,-7.09 -0.04,-14.09 -1,-21c1,0 2,0 3,0c0,-10 0,-20 0,-30c0.79,1.11 1.29,2.44 1.5,4c0.67,1.33 1.33,1.33 2,0c2.06,4.72 5.39,8.06 10,10c2.21,-2.21 4.71,-2.54 7.5,-1c2.94,-0.74 5.94,-1.24 9,-1.5c6.58,-1.63 10.08,-5.79 10.5,-12.5c0.78,-7.65 1.28,-15.32 1.5,-23c0,-0.67 0.33,-1 1,-1z" fill="#21606b" id="svg_76" opacity="0.99"/>
  </g>
  <g id="svg_77">
   <path d="m239.5,97.5c0,1.33 0,2.67 0,4c-0.79,1.11 -1.29,2.44 -1.5,4c-0.31,-0.81 -0.81,-1.47 -1.5,-2c-7.98,0.77 -15.98,1.44 -24,2c0,-3.33 0,-6.67 0,-10c8.35,0.07 16.69,-0.26 25,-1c-0.21,1.68 0.45,2.68 2,3z" fill="#ceac73" id="svg_78"/>
  </g>
  <g id="svg_79">
   <path d="m71.5,90.5c0,3 0,6 0,9c0,0.67 0,1.33 0,2c-1.03,1.19 -2.37,2.02 -4,2.5c-10.4,0.61 -20.73,0.94 -31,1c-0.63,0.75 -1.13,1.58 -1.5,2.5c-0.5,-3.99 -0.67,-7.99 -0.5,-12c3.58,-1.26 7.41,-1.92 11.5,-2c3.75,0.02 7.42,0.35 11,1c5.16,-0.49 9.99,-1.82 14.5,-4z" fill="#bd9b67" id="svg_80"/>
  </g>
  <g id="svg_81">
   <path d="m33.5,82.5c0.98,4.13 1.32,8.47 1,13c-0.17,4.01 0,8.01 0.5,12c0.37,-0.92 0.87,-1.75 1.5,-2.5c10.27,-0.06 20.6,-0.39 31,-1c1.63,-0.48 2.97,-1.31 4,-2.5c0,4.33 0,8.67 0,13c-2.19,2.02 -4.86,3.18 -8,3.5c-9.67,0.29 -19.34,0.13 -29,-0.5c-0.77,-3.95 -1.11,-7.95 -1,-12c0,-7.67 0,-15.33 0,-23z" fill="#a9885a" id="svg_82"/>
  </g>
  <g id="svg_83">
   <path d="m239.5,101.5c0,3.33 0,6.67 0,10c-0.77,0.76 -1.27,1.76 -1.5,3c-3.76,-1.63 -7.76,-2.63 -12,-3c-3,1.33 -6,1.33 -9,0c-1.47,0.77 -2.97,1.43 -4.5,2c0,-0.67 0,-1.33 0,-2c0,-2 0,-4 0,-6c8.02,-0.56 16.02,-1.23 24,-2c0.69,0.53 1.19,1.19 1.5,2c0.21,-1.56 0.71,-2.89 1.5,-4z" fill="#be9b65" id="svg_84"/>
  </g>
  <g id="svg_85">
   <path d="m209.5,88.5c0.52,7.73 1.52,15.39 3,23c0,0.67 0,1.33 0,2c0,2.67 0,5.33 0,8c-1.43,-1.41 -2.43,-3.08 -3,-5c0,-9.33 0,-18.67 0,-28z" fill="#d5a15b" id="svg_86"/>
  </g>
  <g id="svg_87">
   <path d="m206.5,61.5c0.33,0 0.67,0 1,0c-0.06,15.34 -0.39,30.67 -1,46c-1.28,8.47 -2.95,16.97 -5,25.5c-1.58,0.71 -3.08,1.54 -4.5,2.5c-1.33,0 -2.67,0 -4,0c-2.45,-2.11 -5.28,-3.45 -8.5,-4c-1.21,0.77 -1.21,1.61 0,2.5c-0.95,0.62 -1.78,0.45 -2.5,-0.5c-0.67,0.67 -1.33,1.33 -2,2c-3.95,-0.73 -7.95,-1.4 -12,-2c-0.9,0.24 -1.74,0.58 -2.5,1c-0.46,-6.51 0.04,-12.85 1.5,-19c1.01,2.95 2.84,3.61 5.5,2c5.12,1.16 10.29,2.16 15.5,3c5.35,0 10.02,-1.66 14,-5c3.68,-17.8 5.18,-35.8 4.5,-54z" fill="#1b505c" id="svg_88"/>
  </g>
  <g id="svg_89">
   <path d="m93.5,90.5c0,8.67 0,17.33 0,26c-0.97,2.45 -1.31,5.11 -1,8c-0.84,0.34 -1.17,1.01 -1,2c-3.56,-1.53 -6.56,-0.69 -9,2.5c-3.71,0.74 -7.37,1.57 -11,2.5c0,-4.67 0,-9.33 0,-14c0,-1 0,-2 0,-3c0,-4.33 0,-8.67 0,-13c0,-0.67 0,-1.33 0,-2c0.33,0 0.67,0 1,0c-0.17,3.68 0,7.35 0.5,11c2.87,-1.68 6.03,-2.68 9.5,-3c1.97,-1.14 3.81,-2.47 5.5,-4c0.69,0.86 1.52,1.52 2.5,2c0.98,-2.59 1.31,-5.25 1,-8c0.67,-2.33 1.33,-4.67 2,-7z" fill="#6c6c56" id="svg_90"/>
  </g>
  <g id="svg_91">
   <path d="m93.5,116.5c1.33,0 2.67,0 4,0c0,7 0,14 0,21c-1.33,0 -2.67,0 -4,0c0,-7 0,-14 0,-21z" fill="#898064" id="svg_92"/>
  </g>
  <g id="svg_93">
   <path d="m101.5,117.5c2.77,-0.28 5.27,0.39 7.5,2c0.62,0.95 0.45,1.78 -0.5,2.5c2.07,2.07 3.74,4.4 5,7c-0.39,1.01 -1.06,1.51 -2,1.5c1.18,1.35 2.52,2.52 4,3.5c-0.75,0.67 -1.09,1.5 -1,2.5c-4.6,0.3 -9.1,-0.03 -13.5,-1c-0.47,-5.93 -1.31,-11.76 -2.5,-17.5c0.95,-0.48 1.95,-0.65 3,-0.5z" fill="#c8c69d" id="svg_94"/>
  </g>
  <g id="svg_95">
   <path d="m239.5,111.5c0,4.33 0,8.67 0,13c-0.72,0.42 -1.22,1.08 -1.5,2c-6.33,-0.67 -12.67,-1.33 -19,-2c-1.7,0.91 -3.53,1.24 -5.5,1c0.29,2.24 -0.04,4.24 -1,6c0,-3.33 0,-6.67 0,-10c0,-2.67 0,-5.33 0,-8c1.53,-0.57 3.03,-1.23 4.5,-2c3,1.33 6,1.33 9,0c4.24,0.37 8.24,1.37 12,3c0.23,-1.24 0.73,-2.24 1.5,-3z" fill="#ab8858" id="svg_96"/>
  </g>
  <g id="svg_97">
   <path d="m33.5,105.5c-0.11,4.05 0.23,8.05 1,12c9.66,0.63 19.33,0.79 29,0.5c3.14,-0.32 5.81,-1.48 8,-3.5c0,1 0,2 0,3c-0.96,1.76 -1.29,3.76 -1,6c-5.03,1.39 -10.2,2.05 -15.5,2c-7.21,-1.84 -14.37,-2.51 -21.5,-2c-1.31,-6.1 -1.31,-12.1 0,-18z" fill="#8b6d49" id="svg_98"/>
  </g>
  <g id="svg_99">
   <path d="m139.5,117.5c0,-0.33 0,-0.67 0,-1c7,0 14,0 21,0c0.96,6.91 1.29,13.91 1,21c-9,0 -18,0 -27,0c0,-0.33 0,-0.67 0,-1c0.33,0 0.67,0 1,0c1.33,0 2.67,0 4,0c3.33,0 6.67,0 10,0c3,0 6,0 9,0c-0.31,-6.26 0.02,-12.42 1,-18.5c-3.65,-0.5 -7.32,-0.67 -11,-0.5c-3,0 -6,0 -9,0z" fill="#399ea7" id="svg_100"/>
  </g>
  <g id="svg_101">
   <path d="m148.5,117.5c3.68,-0.17 7.35,0 11,0.5c-0.98,6.08 -1.31,12.24 -1,18.5c-3,0 -6,0 -9,0c-1.07,-0.93 -2.4,-1.27 -4,-1c0,-5.67 0,-11.33 0,-17c1.29,0.24 2.29,-0.1 3,-1z" fill="#3fbec1" id="svg_102"/>
  </g>
  <g id="svg_103">
   <path d="m120.5,116.5c6.33,0 12.67,0 19,0c0,0.33 0,0.67 0,1c-0.33,0 -0.67,0 -1,0c-1.32,-0.17 -2.49,0.16 -3.5,1c-0.4,4.51 -0.9,9.01 -1.5,13.5c0.26,1.79 0.93,3.29 2,4.5c-0.33,0 -0.67,0 -1,0c-3.33,0 -6.67,0 -10,0c-0.07,-5.56 -0.07,-11.06 0,-16.5c0.67,-0.67 1.33,-1.33 2,-2c-2.21,-0.19 -4.21,-0.69 -6,-1.5z" fill="#98c9b4" id="svg_104"/>
  </g>
  <g id="svg_105">
   <path d="m138.5,117.5c0.59,5.78 0.26,11.61 -1,17.5c0.92,0.28 1.58,0.78 2,1.5c-1.33,0 -2.67,0 -4,0c-1.07,-1.21 -1.74,-2.71 -2,-4.5c0.6,-4.49 1.1,-8.99 1.5,-13.5c1.01,-0.84 2.18,-1.17 3.5,-1z" fill="#80c7ba" id="svg_106"/>
  </g>
  <g id="svg_107">
   <path d="m138.5,117.5c0.33,0 0.67,0 1,0c3,0 6,0 9,0c-0.71,0.9 -1.71,1.24 -3,1c0,5.67 0,11.33 0,17c1.6,-0.27 2.93,0.07 4,1c-3.33,0 -6.67,0 -10,0c-0.42,-0.72 -1.08,-1.22 -2,-1.5c1.26,-5.89 1.59,-11.72 1,-17.5z" fill="#62c6bf" id="svg_108"/>
  </g>
  <g id="svg_109">
   <path d="m97.5,116.5c1.33,0 2.67,0 4,0c0,0.33 0,0.67 0,1c-1.05,-0.15 -2.05,0.02 -3,0.5c1.19,5.74 2.03,11.57 2.5,17.5c4.4,0.97 8.9,1.3 13.5,1c3.33,0 6.67,0 10,0c3.33,0 6.67,0 10,0c0,0.33 0,0.67 0,1c-12.33,0 -24.67,0 -37,0c0,-7 0,-14 0,-21z" fill="#aaa584" id="svg_110"/>
  </g>
  <g id="svg_111">
   <path d="m239.5,124.5c0,2 0,4 0,6c-0.77,0.76 -1.27,1.76 -1.5,3c-6.65,-0.76 -13.49,-0.93 -20.5,-0.5c-2.9,1.28 -4.57,3.45 -5,6.5c0,-2.67 0,-5.33 0,-8c0.96,-1.76 1.29,-3.76 1,-6c1.97,0.24 3.8,-0.09 5.5,-1c6.33,0.67 12.67,1.33 19,2c0.28,-0.92 0.78,-1.58 1.5,-2z" fill="#97744c" id="svg_112"/>
  </g>
  <g id="svg_113">
   <path d="m101.5,117.5c0,-0.33 0,-0.67 0,-1c6.33,0 12.67,0 19,0c1.79,0.81 3.79,1.31 6,1.5c-0.67,0.67 -1.33,1.33 -2,2c-0.07,5.44 -0.07,10.94 0,16.5c-3.33,0 -6.67,0 -10,0c-0.09,-1 0.25,-1.83 1,-2.5c-1.48,-0.98 -2.82,-2.15 -4,-3.5c0.94,0.01 1.61,-0.49 2,-1.5c-1.26,-2.6 -2.93,-4.93 -5,-7c0.95,-0.72 1.12,-1.55 0.5,-2.5c-2.23,-1.61 -4.73,-2.28 -7.5,-2z" fill="#becdaa" id="svg_114"/>
  </g>
  <g id="svg_115">
   <path d="m91.5,126.5c0.17,3.35 0,6.68 -0.5,10c-0.33,-0.33 -0.67,-0.67 -1,-1c-5.64,3.46 -11.81,5.46 -18.5,6c0,-3 0,-6 0,-9c0,-0.33 0,-0.67 0,-1c3.63,-0.93 7.29,-1.76 11,-2.5c2.44,-3.19 5.44,-4.03 9,-2.5z" fill="#5d5c4a" id="svg_116"/>
  </g>
  <g id="svg_117">
   <path d="m71.5,117.5c0,4.67 0,9.33 0,14c0,0.33 0,0.67 0,1c-0.9,0.71 -1.24,1.71 -1,3c-4,1.44 -8.16,2.1 -12.5,2c-7.55,-0.52 -15.38,-0.85 -23.5,-1c-0.33,0 -0.67,0 -1,0c0,-4.33 0,-8.67 0,-13c7.13,-0.51 14.29,0.16 21.5,2c5.3,0.05 10.47,-0.61 15.5,-2c-0.29,-2.24 0.04,-4.24 1,-6z" fill="#806445" id="svg_118"/>
  </g>
  <g id="svg_119">
   <path d="m209.5,116.5c0.57,1.92 1.57,3.59 3,5c0,3.33 0,6.67 0,10c0,2.67 0,5.33 0,8c0,1 0,2 0,3c-1.25,-2.59 -2.25,-5.25 -3,-8c0,-6 0,-12 0,-18z" fill="#bb8146" id="svg_120"/>
  </g>
  <g id="svg_121">
   <path d="m206.5,107.5c-0.74,13.77 -2.24,27.44 -4.5,41c-2.07,3.02 -4.74,3.68 -8,2c-8.35,1.77 -16.51,1.94 -24.5,0.5c-0.69,-1.07 -1.19,-2.23 -1.5,-3.5c-1,-0.33 -2,-0.67 -3,-1c-0.5,-2.98 -0.66,-5.98 -0.5,-9c0.61,-0.89 0.94,-1.89 1,-3c0.76,-0.42 1.6,-0.76 2.5,-1c4.05,0.6 8.05,1.27 12,2c0.67,-0.67 1.33,-1.33 2,-2c0.72,0.95 1.55,1.12 2.5,0.5c-1.21,-0.89 -1.21,-1.73 0,-2.5c3.22,0.55 6.05,1.89 8.5,4c1.33,0 2.67,0 4,0c1.42,-0.96 2.92,-1.79 4.5,-2.5c2.05,-8.53 3.72,-17.03 5,-25.5z" fill="#164350" id="svg_122" opacity="1"/>
  </g>
  <g id="svg_123">
   <path d="m70.5,135.5c0.26,2.29 -0.08,4.46 -1,6.5c-10.45,3.07 -20.95,3.24 -31.5,0.5c-0.69,0.86 -1.52,1.52 -2.5,2c-0.98,-2.59 -1.31,-5.25 -1,-8c8.12,0.15 15.95,0.48 23.5,1c4.34,0.1 8.5,-0.56 12.5,-2z" fill="#6f583f" id="svg_124"/>
  </g>
  <g id="svg_125">
   <path d="m239.5,130.5c0.3,4.6 -0.03,9.1 -1,13.5c-5.02,0.66 -10.02,0.5 -15,-0.5c-8.32,-0.17 -11.65,3.83 -10,12c0,2.33 0,4.67 0,7c0,3 0,6 0,9c0.27,1.6 -0.07,2.93 -1,4c0,-11 0,-22 0,-33c0,-1 0,-2 0,-3c0.43,-3.05 2.1,-5.22 5,-6.5c7.01,-0.43 13.85,-0.26 20.5,0.5c0.23,-1.24 0.73,-2.24 1.5,-3z" fill="#7f6042" id="svg_126"/>
  </g>
  <g id="svg_127">
   <path d="m71.5,132.5c0,3 0,6 0,9c0,0.33 0,0.67 0,1c-0.72,2.06 -1.38,4.22 -2,6.5c-3.37,1.55 -6.87,2.72 -10.5,3.5c-5.81,-0.74 -11.65,-1.41 -17.5,-2c-2.71,-0.05 -4.88,0.95 -6.5,3c-0.19,-2.21 -0.69,-4.21 -1.5,-6c0,-3.67 0,-7.33 0,-11c0.33,0 0.67,0 1,0c-0.31,2.75 0.02,5.41 1,8c0.98,-0.48 1.81,-1.14 2.5,-2c10.55,2.74 21.05,2.57 31.5,-0.5c0.92,-2.04 1.26,-4.21 1,-6.5c-0.24,-1.29 0.1,-2.29 1,-3z" fill="#63503c" id="svg_128"/>
  </g>
  <g id="svg_129">
   <path d="m239.5,96.5c0.33,0 0.67,0 1,0c0,16.67 0,33.33 0,50c-0.95,1.42 -1.28,3.09 -1,5c-0.9,0.71 -1.24,1.71 -1,3c-8.25,-1.48 -16.59,-1.14 -25,1c-1.65,-8.17 1.68,-12.17 10,-12c4.98,1 9.98,1.16 15,0.5c0.97,-4.4 1.3,-8.9 1,-13.5c0,-2 0,-4 0,-6c0,-4.33 0,-8.67 0,-13c0,-3.33 0,-6.67 0,-10c0,-1.33 0,-2.67 0,-4c0,-0.33 0,-0.67 0,-1z" fill="#6c553d" id="svg_130"/>
  </g>
  <g id="svg_131">
   <path d="m92.5,124.5c0,12.33 0,24.67 0,37c-0.79,-1.11 -1.29,-2.44 -1.5,-4c-0.89,-0.58 -1.89,-0.91 -3,-1c-4.08,1.32 -8.25,2.32 -12.5,3c-0.59,-0.21 -1.09,-0.54 -1.5,-1c-1.15,1.14 -2.31,2.14 -3.5,3c-3,0.33 -4.33,-1 -4,-4c2.21,-0.52 3.71,-1.86 4.5,-4c0.5,-3.65 0.67,-7.32 0.5,-11c0,-0.33 0,-0.67 0,-1c6.69,-0.54 12.86,-2.54 18.5,-6c0.33,0.33 0.67,0.67 1,1c0.5,-3.32 0.67,-6.65 0.5,-10c-0.17,-0.99 0.16,-1.66 1,-2z" fill="#4b4a3e" id="svg_132"/>
  </g>
  <g id="svg_133">
   <path d="m209.5,51.5c0,5 0,10 0,15c0,7.33 0,14.67 0,22c0,9.33 0,18.67 0,28c0,6 0,12 0,18c0,12 0,24 0,36c0.24,1.29 -0.1,2.29 -1,3c0,-10 0,-20 0,-30c0.17,-16.34 0,-32.67 -0.5,-49c-0.23,20.38 -1.23,40.71 -3,61c-0.89,6.47 -4.23,11.13 -10,14c-1.65,-1.53 -3.65,-2.2 -6,-2c-6.5,1.31 -12.83,2.31 -19,3c-1.6,-0.6 -2.94,-1.6 -4,-3c-0.19,2.21 -0.69,4.21 -1.5,6c0.57,-6.95 -0.1,-13.62 -2,-20c0.99,-5.14 1.32,-10.47 1,-16c0.33,0 0.67,0 1,0c-0.16,3.02 0,6.02 0.5,9c1,0.33 2,0.67 3,1c0.31,1.27 0.81,2.43 1.5,3.5c7.99,1.44 16.15,1.27 24.5,-0.5c3.26,1.68 5.93,1.02 8,-2c2.26,-13.56 3.76,-27.23 4.5,-41c0.61,-15.33 0.94,-30.66 1,-46c0.9,-2.89 1.24,-5.89 1,-9c0,-0.67 0.33,-1 1,-1z" fill="#1b3841" id="svg_134"/>
  </g>
  <g id="svg_135">
   <path d="m209.5,134.5c0.75,2.75 1.75,5.41 3,8c0,11 0,22 0,33c0.1,2.05 -0.57,3.72 -2,5c0.01,-2.54 0.34,-5.04 1,-7.5c-0.18,-1.38 -0.85,-2.21 -2,-2.5c0,-12 0,-24 0,-36z" fill="#9f6939" id="svg_136"/>
  </g>
  <g id="svg_137">
   <path d="m71.5,142.5c0.17,3.68 0,7.35 -0.5,11c-0.79,2.14 -2.29,3.48 -4.5,4c-3.08,1.55 -6.42,2.55 -10,3c-6.46,-0.89 -13.12,-1.39 -20,-1.5c-0.75,1.73 -1.25,3.57 -1.5,5.5c-0.23,-1.24 -0.73,-2.24 -1.5,-3c0,-4.67 0,-9.33 0,-14c0.81,1.79 1.31,3.79 1.5,6c1.62,-2.05 3.79,-3.05 6.5,-3c5.85,0.59 11.69,1.26 17.5,2c3.63,-0.78 7.13,-1.95 10.5,-3.5c0.62,-2.28 1.28,-4.44 2,-6.5z" fill="#564738" id="svg_138"/>
  </g>
  <g id="svg_139">
   <path d="m239.5,151.5c0,2.33 0,4.67 0,7c-0.72,0.42 -1.22,1.08 -1.5,2c-8.38,-1.53 -16.55,-0.87 -24.5,2c0,-2.33 0,-4.67 0,-7c8.41,-2.14 16.75,-2.48 25,-1c-0.24,-1.29 0.1,-2.29 1,-3z" fill="#5c4b3a" id="svg_140"/>
  </g>
  <g id="svg_141">
   <path d="m101.5,154.5c0.64,5.16 1.31,10.32 2,15.5c-0.14,0.77 -0.48,1.44 -1,2c2.21,0.19 4.21,0.69 6,1.5c-2.67,0 -5.33,0 -8,0c-1.89,-6.04 -2.56,-12.38 -2,-19c1,0 2,0 3,0z" fill="#7c9986" id="svg_142"/>
  </g>
  <g id="svg_143">
   <path d="m101.5,154.5c2,0 4,0 6,0c1.03,5.94 1.7,11.94 2,18c1.29,-0.24 2.29,0.1 3,1c-1.33,0 -2.67,0 -4,0c-1.79,-0.81 -3.79,-1.31 -6,-1.5c0.52,-0.56 0.86,-1.23 1,-2c-0.69,-5.18 -1.36,-10.34 -2,-15.5z" fill="#85ae9b" id="svg_144"/>
  </g>
  <g id="svg_145">
   <path d="m113.5,154.5c1.33,0 2.67,0 4,0c0.71,0.9 1.71,1.24 3,1c0,5.67 0,11.33 0,17c3.87,-0.32 7.54,0.02 11,1c-5.67,0 -11.33,0 -17,0c-0.96,-6.24 -1.29,-12.58 -1,-19z" fill="#57d2ca" id="svg_146"/>
  </g>
  <g id="svg_147">
   <path d="m150.5,154.5c2.33,0 4.67,0 7,0c0,6.33 0,12.67 0,19c-4,0 -8,0 -12,0c1.45,-0.8 3.12,-1.3 5,-1.5c-1.54,-0.29 -2.88,-0.96 -4,-2c2.79,-4.32 4.12,-8.82 4,-13.5c1.05,0.15 2.05,-0.02 3,-0.5c-1.24,-0.23 -2.24,-0.73 -3,-1.5z" fill="#25b8c5" id="svg_148"/>
  </g>
  <g id="svg_149">
   <path d="m107.5,154.5c0.33,0 0.67,0 1,0c1.67,0 3.33,0 5,0c-0.29,6.42 0.04,12.76 1,19c-0.67,0 -1.33,0 -2,0c-0.71,-0.9 -1.71,-1.24 -3,-1c-0.3,-6.06 -0.97,-12.06 -2,-18z" fill="#7dbbaa" id="svg_150"/>
  </g>
  <g id="svg_151">
   <path d="m138.5,154.5c4,0 8,0 12,0c0.76,0.77 1.76,1.27 3,1.5c-0.95,0.48 -1.95,0.65 -3,0.5c0.12,4.68 -1.21,9.18 -4,13.5c1.12,1.04 2.46,1.71 4,2c-1.88,0.2 -3.55,0.7 -5,1.5c-2.33,0 -4.67,0 -7,0c-0.22,-1.24 -0.89,-2.24 -2,-3c1.68,-5.19 2.35,-10.52 2,-16z" fill="#29c8d4" id="svg_152"/>
  </g>
  <g id="svg_153">
   <path d="m66.5,157.5c-0.33,3 1,4.33 4,4c0.8,0.92 0.97,1.92 0.5,3c-4.94,4.36 -10.77,6.36 -17.5,6c-5.96,-1.06 -11.96,-1.73 -18,-2c0.16,2.36 0,4.69 -0.5,7c-0.21,-1.56 -0.71,-2.89 -1.5,-4c0,-3.33 0,-6.67 0,-10c0.77,0.76 1.27,1.76 1.5,3c0.25,-1.93 0.75,-3.77 1.5,-5.5c6.88,0.11 13.54,0.61 20,1.5c3.58,-0.45 6.92,-1.45 10,-3z" fill="#494035" id="svg_154"/>
  </g>
  <g id="svg_155">
   <path d="m117.5,154.5c7,0 14,0 21,0c0.35,5.48 -0.32,10.81 -2,16c1.11,0.76 1.78,1.76 2,3c-2.33,0 -4.67,0 -7,0c-3.46,-0.98 -7.13,-1.32 -11,-1c0,-5.67 0,-11.33 0,-17c-1.29,0.24 -2.29,-0.1 -3,-1z" fill="#30e2e4" id="svg_156"/>
  </g>
  <g id="svg_157">
   <path d="m92.5,161.5c-0.33,11.85 0.01,23.51 1,35c0,1.67 0,3.33 0,5c-1.71,-1.13 -2.38,-2.8 -2,-5c0,-3.67 0,-7.33 0,-11c0.34,-5.43 -0.16,-10.76 -1.5,-16c-4.73,1.79 -9.9,3.29 -15.5,4.5c-1,1 -2,2 -3,3c-3.97,0.82 -7.63,2.32 -11,4.5c-1.33,-1.33 -2.67,-1.33 -4,0c-1.01,-0.44 -1.01,-1.1 0,-2c-7.01,-2.19 -14.01,-2.86 -21,-2c-0.47,5.83 -1.14,11.5 -2,17c0,-7.67 0,-15.33 0,-23c0.79,1.11 1.29,2.44 1.5,4c0.5,-2.31 0.66,-4.64 0.5,-7c6.04,0.27 12.04,0.94 18,2c6.73,0.36 12.56,-1.64 17.5,-6c0.47,-1.08 0.3,-2.08 -0.5,-3c1.19,-0.86 2.35,-1.86 3.5,-3c0.41,0.46 0.91,0.79 1.5,1c4.25,-0.68 8.42,-1.68 12.5,-3c1.11,0.09 2.11,0.42 3,1c0.21,1.56 0.71,2.89 1.5,4z" fill="#3e3c35" id="svg_158"/>
  </g>
  <g id="svg_159">
   <path d="m239.5,158.5c0.38,4.8 -0.12,9.46 -1.5,14c-7.48,-2.36 -15.15,-2.36 -23,0c-0.38,-0.56 -0.88,-0.89 -1.5,-1c0,-3 0,-6 0,-9c7.95,-2.87 16.12,-3.53 24.5,-2c0.28,-0.92 0.78,-1.58 1.5,-2z" fill="#4d4437" id="svg_160"/>
  </g>
  <g id="svg_161">
   <path d="m205.5,164.5c0.78,8.51 -1.89,15.68 -8,21.5c-7.69,4.34 -15.02,8.5 -22,12.5c-2.78,-0.45 -5.28,-1.45 -7.5,-3c-1.91,3.36 -2.91,7.03 -3,11c-0.5,-8.99 -0.67,-17.99 -0.5,-27c1.65,0.98 2.98,2.31 4,4c1.29,0.6 2.63,1.1 4,1.5c-0.12,1.28 0.38,2.45 1.5,3.5c6.19,-1.24 12.36,-2.74 18.5,-4.5c3.29,-1.14 6.13,-2.97 8.5,-5.5c2.14,-4.59 3.64,-9.25 4.5,-14z" fill="#102835" id="svg_162" opacity="0.99"/>
  </g>
  <g id="svg_163">
   <path d="m157.5,154.5c1.33,0 2.67,0 4,0c0,6.33 0,12.67 0,19c-1.33,0 -2.67,0 -4,0c0,-6.33 0,-12.67 0,-19z" fill="#2097a9" id="svg_164"/>
  </g>
  <g id="svg_165">
   <path d="m108.5,154.5c0,-0.33 0,-0.67 0,-1c18,0 36,0 54,0c1.9,6.38 2.57,13.05 2,20c-0.67,0 -1.33,0 -2,0c-0.33,0 -0.67,0 -1,0c0,-6.33 0,-12.67 0,-19c-1.33,0 -2.67,0 -4,0c-2.33,0 -4.67,0 -7,0c-4,0 -8,0 -12,0c-7,0 -14,0 -21,0c-1.33,0 -2.67,0 -4,0c-1.67,0 -3.33,0 -5,0z" fill="#29576e" id="svg_166"/>
  </g>
  <g id="svg_167">
   <path d="m208.5,143.5c-0.77,0.76 -1.27,1.76 -1.5,3c-0.7,5.99 -1.2,11.99 -1.5,18c-0.86,4.75 -2.36,9.41 -4.5,14c-2.37,2.53 -5.21,4.36 -8.5,5.5c-6.14,1.76 -12.31,3.26 -18.5,4.5c-1.12,-1.05 -1.62,-2.22 -1.5,-3.5c-1.37,-0.4 -2.71,-0.9 -4,-1.5c-1.02,-1.69 -2.35,-3.02 -4,-4c0,-2 0,-4 0,-6c0.81,-1.79 1.31,-3.79 1.5,-6c1.06,1.4 2.4,2.4 4,3c6.17,-0.69 12.5,-1.69 19,-3c2.35,-0.2 4.35,0.47 6,2c5.77,-2.87 9.11,-7.53 10,-14c1.77,-20.29 2.77,-40.62 3,-61c0.5,16.33 0.67,32.66 0.5,49z" fill="#12303b" id="svg_168"/>
  </g>
  <g id="svg_169">
   <path d="m240.5,146.5c0.18,10.69 -0.15,21.36 -1,32c-0.9,0.71 -1.24,1.71 -1,3c-2.69,0.07 -5.36,0.4 -8,1c-4.88,-1.62 -9.72,-2.29 -14.5,-2c-1.75,1.74 -3.58,2.41 -5.5,2c0,-0.67 0,-1.33 0,-2c1.43,-1.28 2.1,-2.95 2,-5c0.93,-1.07 1.27,-2.4 1,-4c0.62,0.11 1.12,0.44 1.5,1c7.85,-2.36 15.52,-2.36 23,0c1.38,-4.54 1.88,-9.2 1.5,-14c0,-2.33 0,-4.67 0,-7c-0.28,-1.91 0.05,-3.58 1,-5z" fill="#3e3b34" id="svg_170"/>
  </g>
  <g id="svg_171">
   <path d="m91.5,185.5c-0.81,-1.79 -1.31,-3.79 -1.5,-6c-0.56,-0.52 -1.23,-0.85 -2,-1c-2.84,1.12 -5.68,2.12 -8.5,3c-0.67,-0.33 -1.33,-0.67 -2,-1c-4.38,3.86 -9.38,6.69 -15,8.5c-8.04,0.43 -15.87,0.6 -23.5,0.5c-3.02,-4.1 -4.19,-3.43 -3.5,2c0,6.02 -0.34,12.02 -1,18c-0.33,0 -0.67,0 -1,0c0,-5 0,-10 0,-15c0.86,-5.5 1.53,-11.17 2,-17c6.99,-0.86 13.99,-0.19 21,2c-1.01,0.9 -1.01,1.56 0,2c1.33,-1.33 2.67,-1.33 4,0c3.37,-2.18 7.03,-3.68 11,-4.5c1,-1 2,-2 3,-3c5.6,-1.21 10.77,-2.71 15.5,-4.5c1.34,5.24 1.84,10.57 1.5,16z" fill="#353633" id="svg_172"/>
  </g>
  <g id="svg_173">
   <path d="m93.5,153.5c5,0 10,0 15,0c0,0.33 0,0.67 0,1c-0.33,0 -0.67,0 -1,0c-2,0 -4,0 -6,0c-1,0 -2,0 -3,0c-0.56,6.62 0.11,12.96 2,19c-2.33,0 -4.67,0 -7,0c0,-6.67 0,-13.33 0,-20z" fill="#5b6c62" id="svg_174" opacity="0.59"/>
  </g>
  <g id="svg_175">
   <path d="m91.5,185.5c0,3.67 0,7.33 0,11c-3.67,0.78 -7.5,0.78 -11.5,0c-3.73,2.29 -7.4,2.29 -11,0c-1.72,0.11 -1.89,0.61 -0.5,1.5c-6.14,1.15 -12.14,1.65 -18,1.5c-2.54,-0.34 -4.7,-1.34 -6.5,-3c-0.33,0.33 -0.67,0.67 -1,1c-3.3,-1.21 -5.8,-3.21 -7.5,-6c-0.69,-5.43 0.48,-6.1 3.5,-2c7.63,0.1 15.46,-0.07 23.5,-0.5c5.62,-1.81 10.62,-4.64 15,-8.5c0.67,0.33 1.33,0.67 2,1c2.82,-0.88 5.66,-1.88 8.5,-3c0.77,0.15 1.44,0.48 2,1c0.19,2.21 0.69,4.21 1.5,6z" fill="#2d3535" id="svg_176"/>
  </g>
  <g id="svg_177">
   <path d="m208.5,143.5c0,10 0,20 0,30c-0.46,3.56 -1.63,6.9 -3.5,10c-13.73,14.23 -27.9,27.9 -42.5,41c1.29,-17.05 1.29,-34.05 0,-51c0.67,0 1.33,0 2,0c0,2 0,4 0,6c-0.17,9.01 0,18.01 0.5,27c0.09,-3.97 1.09,-7.64 3,-11c2.22,1.55 4.72,2.55 7.5,3c6.98,-4 14.31,-8.16 22,-12.5c6.11,-5.82 8.78,-12.99 8,-21.5c0.3,-6.01 0.8,-12.01 1.5,-18c0.23,-1.24 0.73,-2.24 1.5,-3z" fill="#0f202c" id="svg_178"/>
  </g>
  <g id="svg_179">
   <path d="m239.5,178.5c0,6.33 0,12.67 0,19c-3.31,-2.04 -6.64,-1.71 -10,1c-1.95,-1.35 -4.12,-2.02 -6.5,-2c-7.3,2.24 -14.8,3.4 -22.5,3.5c-1.8,0.64 -3.14,1.8 -4,3.5c-1.18,-1.35 -2.18,-1.19 -3,0.5c0.33,0.33 0.67,0.67 1,1c-1.54,1.11 -2.2,2.61 -2,4.5c-3.86,1.19 -6.86,3.52 -9,7c-6.04,5.54 -12.37,10.88 -19,16c3.07,-5.46 7.07,-10.13 12,-14c3.33,-4 7,-7.67 11,-11c8.74,-7.41 16.41,-15.74 23,-25c1.92,0.41 3.75,-0.26 5.5,-2c4.78,-0.29 9.62,0.38 14.5,2c2.64,-0.6 5.31,-0.93 8,-1c-0.24,-1.29 0.1,-2.29 1,-3z" fill="#323737" id="svg_180" opacity="0.98"/>
  </g>
  <g id="svg_181">
   <path d="m93.5,116.5c0,7 0,14 0,21c0,5.33 0,10.67 0,16c0,6.67 0,13.33 0,20c2.33,0 4.67,0 7,0c2.67,0 5.33,0 8,0c1.33,0 2.67,0 4,0c-6.14,0.99 -12.48,1.32 -19,1c0,7.33 0,14.67 0,22c-0.99,-11.49 -1.33,-23.15 -1,-35c0,-12.33 0,-24.67 0,-37c-0.31,-2.89 0.03,-5.55 1,-8z" fill="#2b2822" id="svg_182" opacity="0.07"/>
  </g>
  <g id="svg_183">
   <path d="m35.5,191.5c1.7,2.79 4.2,4.79 7.5,6c0.33,-0.33 0.67,-0.67 1,-1c1.8,1.66 3.96,2.66 6.5,3c5.86,0.15 11.86,-0.35 18,-1.5c-1.39,-0.89 -1.22,-1.39 0.5,-1.5c3.6,2.29 7.27,2.29 11,0c4,0.78 7.83,0.78 11.5,0c-0.38,2.2 0.29,3.87 2,5c0,5.33 0,10.67 0,16c-0.67,-1.33 -1.33,-2.67 -2,-4c0.16,-2.69 0,-5.35 -0.5,-8c-0.56,-0.52 -1.23,-0.85 -2,-1c-1.86,1.24 -3.69,1.24 -5.5,0c-0.75,0.88 -1.25,1.88 -1.5,3c-4.58,-1.99 -9.24,-2.65 -14,-2c-0.93,1.84 -2.09,2.17 -3.5,1c-6.48,2.51 -12.98,3.84 -19.5,4c-0.32,1.8 -0.98,2.13 -2,1c-2.34,0.63 -4.51,1.63 -6.5,3c-0.68,-0.74 -1.35,-1.41 -2,-2c0,-1 0,-2 0,-3c0.66,-5.98 1,-11.98 1,-18z" fill="#29353a" id="svg_184"/>
  </g>
  <g id="svg_185">
   <path d="m210.5,180.5c0,0.67 0,1.33 0,2c-6.59,9.26 -14.26,17.59 -23,25c8.05,-8.71 15.71,-17.71 23,-27z" fill="#7a5535" id="svg_186"/>
  </g>
  <g id="svg_187">
   <path d="m239.5,197.5c0,4.67 0,9.33 0,14c-0.8,-1.45 -1.3,-3.12 -1.5,-5c-4.73,0.12 -9.73,0.12 -15,0c-4.69,1.41 -9.53,2.25 -14.5,2.5c-3.01,1.62 -5.84,3.45 -8.5,5.5c-0.67,-0.67 -1.33,-1.33 -2,-2c-3.29,0.48 -6.12,1.81 -8.5,4c-1.49,-1.21 -2.83,-1.21 -4,0c-0.67,0 -1.33,0 -2,0c2.14,-3.48 5.14,-5.81 9,-7c-0.2,-1.89 0.46,-3.39 2,-4.5c-0.33,-0.33 -0.67,-0.67 -1,-1c0.82,-1.69 1.82,-1.85 3,-0.5c0.86,-1.7 2.2,-2.86 4,-3.5c7.7,-0.1 15.2,-1.26 22.5,-3.5c2.38,-0.02 4.55,0.65 6.5,2c3.36,-2.71 6.69,-3.04 10,-1z" fill="#28383f" id="svg_188"/>
  </g>
  <g id="svg_189">
   <path d="m209.5,170.5c1.15,0.29 1.82,1.12 2,2.5c-0.66,2.46 -0.99,4.96 -1,7.5c-7.29,9.29 -14.95,18.29 -23,27c-4,3.33 -7.67,7 -11,11c-7.01,4.19 -13.34,9.36 -19,15.5c-1.57,0.76 -2.9,0.6 -4,-0.5c3.33,-2.67 6.33,-5.67 9,-9c14.6,-13.1 28.77,-26.77 42.5,-41c1.87,-3.1 3.04,-6.44 3.5,-10c0.9,-0.71 1.24,-1.71 1,-3z" fill="#c5955f" id="svg_190"/>
  </g>
  <g id="svg_191">
   <path d="m91.5,213.5c0.16,1.7 -0.01,3.37 -0.5,5c-1.67,0 -3.33,0 -5,0c-1,-0.67 -2,-1.33 -3,-2c-14.94,1.81 -29.78,4.47 -44.5,8c-3.02,-0.23 -5.68,-1.23 -8,-3c1.59,-2.85 2.92,-5.85 4,-9c0.65,0.59 1.32,1.26 2,2c1.99,-1.37 4.16,-2.37 6.5,-3c1.02,1.13 1.68,0.8 2,-1c6.52,-0.16 13.02,-1.49 19.5,-4c1.41,1.17 2.57,0.84 3.5,-1c4.76,-0.65 9.42,0.01 14,2c0.25,-1.12 0.75,-2.12 1.5,-3c1.81,1.24 3.64,1.24 5.5,0c0.77,0.15 1.44,0.48 2,1c0.5,2.65 0.66,5.31 0.5,8z" fill="#263b45" id="svg_192"/>
  </g>
  <g id="svg_193">
   <path d="m239.5,211.5c0,4.33 0,8.67 0,13c-0.95,-1.42 -1.28,-3.09 -1,-5c-3.17,-0.27 -6.33,-0.6 -9.5,-1c-10.33,1.5 -20.66,2.83 -31,4c-5.21,0.78 -9.71,-0.55 -13.5,-4c0.36,-0.68 0.7,-1.35 1,-2c1.17,-1.21 2.51,-1.21 4,0c2.38,-2.19 5.21,-3.52 8.5,-4c0.67,0.67 1.33,1.33 2,2c2.66,-2.05 5.49,-3.88 8.5,-5.5c4.97,-0.25 9.81,-1.09 14.5,-2.5c5.27,0.12 10.27,0.12 15,0c0.2,1.88 0.7,3.55 1.5,5z" fill="#25404b" id="svg_194"/>
  </g>
  <g id="svg_195">
   <path d="m33.5,209.5c0.33,0 0.67,0 1,0c0,1 0,2 0,3c-1.08,3.15 -2.41,6.15 -4,9c-2.68,2.23 -5.68,3.9 -9,5c2.63,-3.13 5.46,-6.13 8.5,-9c1.84,-2.37 3.01,-5.03 3.5,-8z" fill="#504f48" id="svg_196" opacity="0.66"/>
  </g>
  <g id="svg_197">
   <path d="m91.5,213.5c0.67,1.33 1.33,2.67 2,4c0.31,6.26 -0.02,12.42 -1,18.5c-27,-0.24 -54,-0.41 -81,-0.5c2.73,-3.73 6.06,-6.73 10,-9c3.32,-1.1 6.32,-2.77 9,-5c2.32,1.77 4.98,2.77 8,3c14.72,-3.53 29.56,-6.19 44.5,-8c1,0.67 2,1.33 3,2c1.67,0 3.33,0 5,0c0.49,-1.63 0.66,-3.3 0.5,-5z" fill="#263d48" id="svg_198"/>
  </g>
  <g id="svg_199">
   <path d="m91.5,222.5c0.98,3.8 1.32,7.8 1,12c-17.67,0.17 -35.34,0 -53,-0.5c3.76,0.11 6.93,-1.05 9.5,-3.5c0.41,0.46 0.91,0.79 1.5,1c3.6,-2.63 7.6,-4.47 12,-5.5c7.89,-0.84 15.72,-1.67 23.5,-2.5c2.12,1.24 3.95,0.9 5.5,-1z" fill="#264655" id="svg_200" opacity="1"/>
  </g>
  <g id="svg_201">
   <path d="m183.5,216.5c0.67,0 1.33,0 2,0c-0.3,0.65 -0.64,1.32 -1,2c3.79,3.45 8.29,4.78 13.5,4c10.34,-1.17 20.67,-2.5 31,-4c3.17,0.4 6.33,0.73 9.5,1c-0.28,1.91 0.05,3.58 1,5c-0.08,3.71 0.26,7.38 1,11c-26.34,-0.04 -52.67,0.29 -79,1c0.24,-1.9 1.24,-3.24 3,-4c6.63,-5.12 12.96,-10.46 19,-16z" fill="#274956" id="svg_202"/>
  </g>
  <g id="svg_203">
   <path d="m176.5,218.5c-4.93,3.87 -8.93,8.54 -12,14c-1.76,0.76 -2.76,2.1 -3,4c-3,0 -6,0 -9,0c-0.24,-1.29 0.1,-2.29 1,-3c1.1,1.1 2.43,1.26 4,0.5c5.66,-6.14 11.99,-11.31 19,-15.5z" fill="#915f38" id="svg_204"/>
  </g>
 </g>
</svg>
